<?xml version="1.0" encoding="utf-8"?>
<!-- Generator: Adobe Illustrator 25.4.1, SVG Export Plug-In . SVG Version: 6.00 Build 0)  -->
<svg version="1.1" id="Capa_1" xmlns="http://www.w3.org/2000/svg" xmlns:xlink="http://www.w3.org/1999/xlink" x="0px" y="0px"
	 viewBox="0 0 128 53" style="enable-background:new 0 0 128 53;" xml:space="preserve">
<style type="text/css">
	.st0{fill:#F45197;}
	.st1{fill:#F32735;}
	.st2{fill:#D50057;}
	.st3{fill:#FF6B00;}
	.st4{fill:#B8BE14;}
	.st5{fill:#789C4A;}
	.st6{fill:#5F6638;}
	.st7{fill:#D41C59;}
	.st8{fill:none;stroke:#D41C59;stroke-width:3;stroke-miterlimit:10;}
	.st9{fill:none;stroke:#D41C59;stroke-width:2;stroke-miterlimit:10;}
	.st10{fill:url(#SVGID_1_);}
	.st11{opacity:0;fill:#CBCBCC;}
	.st12{opacity:6.250000e-02;fill:url(#SVGID_00000141446712533113569340000013315968103721964703_);}
	.st13{opacity:0.125;fill:url(#SVGID_00000145037123799006276420000012717495869778513845_);}
	.st14{opacity:0.1875;fill:url(#SVGID_00000098210978681520730140000002192245549910487185_);}
	.st15{opacity:0.25;fill:url(#SVGID_00000134952511177653100980000008937975711881567123_);}
	.st16{opacity:0.3125;fill:url(#SVGID_00000136379487347627807460000000997057492005189800_);}
	.st17{opacity:0.375;fill:url(#SVGID_00000020387510090099342460000010052663887779652785_);}
	.st18{opacity:0.4375;fill:url(#SVGID_00000087401303021528077920000001628259410004702389_);}
	.st19{opacity:0.5;fill:url(#SVGID_00000029037910874604517580000017894499570563143582_);}
	.st20{opacity:0.5625;fill:url(#SVGID_00000124868511414077882900000007577983410243494290_);}
	.st21{opacity:0.625;fill:url(#SVGID_00000132071674355716738360000007359226240336053915_);}
	.st22{opacity:0.6875;fill:url(#SVGID_00000021839935396590569680000007855707814012959417_);}
	.st23{opacity:0.75;fill:url(#SVGID_00000160897624153680478200000006361642323170957193_);}
	.st24{opacity:0.8125;fill:url(#SVGID_00000178163102658229575760000011583107081268016564_);}
	.st25{opacity:0.875;fill:url(#SVGID_00000078749302041195635900000003516321899645137550_);}
	.st26{opacity:0.9375;fill:url(#SVGID_00000019656998371779119680000009914354488772959896_);}
	.st27{fill:url(#SVGID_00000001665878423357226630000000435962526103058341_);}
	.st28{fill:url(#SVGID_00000118383527692506372320000001675824113106257299_);}
	.st29{filter:url(#Adobe_OpacityMaskFilter);}
	.st30{filter:url(#Adobe_OpacityMaskFilter_00000147906981708300053650000005944948859531300278_);}
	
		.st31{mask:url(#SVGID_00000128477129398342615130000010265995113065283463_);fill:url(#SVGID_00000008848362624932638130000002330324209301591992_);}
	.st32{fill:url(#SVGID_00000091007347419703337540000014373450902024520618_);}
	.st33{fill:#FFFFFF;}
	.st34{fill:#73BE49;}
	.st35{fill:#32A7DE;}
	.st36{fill:#FCCA2D;}
</style>
<g>
	<g>
		<linearGradient id="SVGID_1_" gradientUnits="userSpaceOnUse" x1="148.5481" y1="49.6229" x2="-1.7702" y2="8.3673">
			<stop  offset="0" style="stop-color:#E2E4E6"/>
			<stop  offset="1" style="stop-color:#EFF0F1"/>
		</linearGradient>
		<path class="st10" d="M126.3,45.7c-0.7,0.3-58.9,7.1-62.7,7.1c-0.1,0-0.8,0.1-1.6,0.1c-7.5,0-57.4,0-57.4,0c-1.8,0-3.4-1.4-3.4-3
			c0,0-0.9-17.8-0.9-22.4S0.1,3.1,0.1,3.1c0-1.7,1.5-3,3.3-2.9c0,0,36.3,0.6,59.7,0.6c20.7,0,43.5-0.8,51.4-0.8c2.9,0,6-0.1,7.9,0
			c4.8,0.1,5.1,0.7,5.4,3.7C127.9,5,128,35.5,128,43C128,44.8,127.2,45.4,126.3,45.7z"/>
		<g>
			<path class="st11" d="M107.5,41.9c-8.2,1.5-11.9,3.3-19.1,4.6c-3,0.6-7.5,2.1-12.3,3.5c-4.9,1.4-10.1,2.7-14.8,2.9
				c0.5,0,1.7-0.1,3.4-0.1c5.8-0.5,17.9-2,29-3.4c11.2-1.4,21.4-2.6,23.4-2.8c3.4-0.2,6.6-0.9,9-1.4c1.2-0.3,1.6-1,1.8-1.7
				C128.9,37.7,114.8,40.6,107.5,41.9z"/>
			
				<linearGradient id="SVGID_00000034786216216395120090000002044442607272925314_" gradientUnits="userSpaceOnUse" x1="-3.5283" y1="45.7378" x2="64.7531" y2="45.7378" gradientTransform="matrix(0.9518 3.703750e-02 -0.1041 0.9777 70.4373 0.846)">
				<stop  offset="0" style="stop-color:#C6C6C7"/>
				<stop  offset="1" style="stop-color:#C8C8C9"/>
			</linearGradient>
			<path style="opacity:6.250000e-02;fill:url(#SVGID_00000034786216216395120090000002044442607272925314_);" d="M127.8,43.6
				c0.2-1.2-0.4-2.1-1.5-2.6c-3.6-1.8-13.1,0.1-18.8,1.2c-3.7,0.7-6.6,1.4-9.2,2.2c-3,0.8-5.8,1.6-9.7,2.4c-1.6,0.3-3.5,0.8-5.6,1.5
				c-2,0.6-4.3,1.3-6.6,1.9c-4.8,1.4-10,2.6-14.8,2.8c0.5,0,1.7-0.1,3.3-0.1c4.1-0.4,11.3-1.2,19-2.1c3.2-0.4,6.5-0.8,9.7-1.2
				c11-1.4,21.2-2.6,23.2-2.8c3.5-0.2,6.7-0.9,9.1-1.4c0.1,0,0.3-0.1,0.4-0.1C127.2,44.8,127.6,44.2,127.8,43.6z"/>
			
				<linearGradient id="SVGID_00000012440530954574973820000005402902673671863942_" gradientUnits="userSpaceOnUse" x1="-73.8457" y1="50.3728" x2="-4.3454" y2="50.3728" gradientTransform="matrix(0.9036 7.407500e-02 -0.2081 0.9553 140.8746 1.6921)">
				<stop  offset="0" style="stop-color:#C0C0C1"/>
				<stop  offset="1" style="stop-color:#C5C5C6"/>
			</linearGradient>
			<path style="opacity:0.125;fill:url(#SVGID_00000012440530954574973820000005402902673671863942_);" d="M127.7,43.6
				c0.2-1.1-0.5-1.9-1.6-2.4c-3.6-1.8-12.8,0.1-18.6,1.2c-3.7,0.7-6.5,1.4-9.2,2.2c-2.9,0.8-5.7,1.6-9.6,2.4
				c-1.6,0.3-3.5,0.8-5.6,1.4c-2,0.6-4.2,1.2-6.6,1.9c-4.7,1.3-9.9,2.5-14.7,2.7c0.5,0,1.7-0.1,3.3-0.1c4.1-0.4,11.2-1.2,18.9-2.1
				c3.2-0.4,6.5-0.8,9.7-1.2c10.9-1.4,20.9-2.6,23-2.8c3.6-0.2,6.9-0.9,9.2-1.4c0.1,0,0.3-0.1,0.4-0.1
				C127.1,44.9,127.5,44.3,127.7,43.6z"/>
			
				<linearGradient id="SVGID_00000044157029584110940980000000996551589403250846_" gradientUnits="userSpaceOnUse" x1="-148.32" y1="61.3067" x2="-78.237" y2="61.3067" gradientTransform="matrix(0.8554 0.1111 -0.3122 0.933 211.312 2.5381)">
				<stop  offset="0" style="stop-color:#BBBBBC"/>
				<stop  offset="1" style="stop-color:#C2C2C2"/>
			</linearGradient>
			<path style="opacity:0.1875;fill:url(#SVGID_00000044157029584110940980000000996551589403250846_);" d="M127.7,43.7
				c0.1-1-0.6-1.7-1.7-2.3c-3.6-1.8-12.5,0-18.5,1.2c-3.6,0.7-6.4,1.4-9.1,2.1c-2.9,0.8-5.7,1.6-9.6,2.3c-1.6,0.3-3.4,0.8-5.6,1.4
				c-2,0.6-4.2,1.2-6.6,1.8c-4.7,1.2-9.9,2.4-14.6,2.7c0.5,0,1.7-0.1,3.3-0.2c4-0.4,11.1-1.1,18.7-2.1c3.2-0.4,6.4-0.8,9.6-1.2
				c10.8-1.4,20.7-2.6,22.8-2.8c3.7-0.2,7-0.9,9.3-1.4c0.1,0,0.3-0.1,0.4-0.1C127,44.9,127.5,44.3,127.7,43.7z"/>
			
				<linearGradient id="SVGID_00000128459183844102841820000008075069164417334413_" gradientUnits="userSpaceOnUse" x1="-224.9036" y1="79.2224" x2="-155.0067" y2="79.2224" gradientTransform="matrix(0.8072 0.1481 -0.4162 0.9106 281.7493 3.3842)">
				<stop  offset="0" style="stop-color:#B5B5B6"/>
				<stop  offset="1" style="stop-color:#BFBFBF"/>
			</linearGradient>
			<path style="opacity:0.25;fill:url(#SVGID_00000128459183844102841820000008075069164417334413_);" d="M127.7,43.7
				c0.1-0.9-0.7-1.6-1.8-2.1c-3.5-1.8-12.3,0-18.4,1.2c-3.5,0.7-6.4,1.4-9.1,2.1c-2.8,0.7-5.6,1.5-9.5,2.3c-1.5,0.3-3.4,0.8-5.6,1.4
				c-1.9,0.5-4.1,1.1-6.5,1.7c-4.6,1.2-9.8,2.3-14.5,2.6c0.5,0,1.7-0.1,3.2-0.2c4-0.3,11-1.1,18.5-2c3.1-0.4,6.3-0.8,9.5-1.2
				c10.7-1.4,20.5-2.6,22.6-2.8c3.7-0.3,7.1-0.9,9.4-1.4c0.1,0,0.3-0.1,0.4-0.1C126.9,44.9,127.4,44.4,127.7,43.7z"/>
			
				<linearGradient id="SVGID_00000041279733181058505810000012934379449289191083_" gradientUnits="userSpaceOnUse" x1="-300.952" y1="104.4137" x2="-232.1023" y2="104.4137" gradientTransform="matrix(0.759 0.1852 -0.5203 0.8883 352.1866 4.2302)">
				<stop  offset="0" style="stop-color:#B0B0B1"/>
				<stop  offset="1" style="stop-color:#BBBBBC"/>
			</linearGradient>
			<path style="opacity:0.3125;fill:url(#SVGID_00000041279733181058505810000012934379449289191083_);" d="M127.7,43.8
				c0-0.8-0.8-1.4-1.9-2c-3.5-1.8-12,0-18.2,1.2c-3.4,0.7-6.3,1.4-9,2.1c-2.7,0.7-5.5,1.5-9.5,2.3c-1.5,0.3-3.4,0.8-5.5,1.4
				c-1.9,0.5-4.1,1.1-6.5,1.7c-4.6,1.1-9.7,2.2-14.4,2.5c0.5,0,1.7-0.1,3.2-0.2c4-0.3,10.9-1.1,18.4-2c3.1-0.4,6.3-0.8,9.4-1.2
				c10.6-1.3,20.3-2.6,22.4-2.8c3.8-0.3,7.3-0.9,9.6-1.4c0.1,0,0.3-0.1,0.4-0.1C126.8,45,127.4,44.4,127.7,43.8z"/>
			
				<linearGradient id="SVGID_00000045609646896380206670000016751990656505621173_" gradientUnits="userSpaceOnUse" x1="-373.426" y1="136.6508" x2="-306.5359" y2="136.6508" gradientTransform="matrix(0.7108 0.2222 -0.6243 0.8659 422.6239 5.0763)">
				<stop  offset="0" style="stop-color:#AAAAAB"/>
				<stop  offset="1" style="stop-color:#B8B8B9"/>
			</linearGradient>
			<path style="opacity:0.375;fill:url(#SVGID_00000045609646896380206670000016751990656505621173_);" d="M127.6,43.8
				c0-0.7-0.9-1.3-2-1.8c-3.4-1.8-11.8-0.1-18.1,1.2c-3.4,0.7-6.2,1.4-9,2.1c-2.7,0.7-5.4,1.5-9.4,2.2c-1.5,0.3-3.4,0.8-5.5,1.3
				c-1.9,0.5-4.1,1-6.5,1.6c-4.5,1.1-9.6,2.1-14.4,2.4c0.5,0,1.7-0.1,3.2-0.2c4-0.3,10.9-1,18.2-2c3.1-0.4,6.2-0.8,9.3-1.2
				c10.5-1.3,20.1-2.6,22.2-2.8c3.9-0.3,7.4-0.9,9.7-1.4c0.1,0,0.3-0.1,0.4-0.1C126.7,45,127.3,44.5,127.6,43.8z"/>
			
				<linearGradient id="SVGID_00000066504156917716922060000017190838949458803854_" gradientUnits="userSpaceOnUse" x1="-439.2245" y1="175.1201" x2="-375.1904" y2="175.1201" gradientTransform="matrix(0.6626 0.2593 -0.7284 0.8436 493.0612 5.9223)">
				<stop  offset="0" style="stop-color:#A5A5A6"/>
				<stop  offset="1" style="stop-color:#B5B5B6"/>
			</linearGradient>
			<path style="opacity:0.4375;fill:url(#SVGID_00000066504156917716922060000017190838949458803854_);" d="M127.6,43.9
				c0-0.5-1.1-1.1-2.1-1.7c-3.4-1.8-11.5-0.1-18,1.2c-3.3,0.7-6.1,1.4-8.9,2c-2.6,0.6-5.3,1.4-9.3,2.2C87.8,48,86,48.5,83.9,49
				c-1.8,0.5-4,1-6.4,1.6c-4.4,1-9.5,2-14.3,2.4c0.6,0,1.7-0.1,3.1-0.2c4-0.3,10.8-1,18.1-1.9c3-0.4,6.2-0.8,9.2-1.2
				c10.4-1.3,19.8-2.6,22-2.8c4-0.3,7.5-0.8,9.8-1.4c0.1,0,0.3-0.1,0.4-0.1C126.6,45,127.3,44.6,127.6,43.9z"/>
			
				<linearGradient id="SVGID_00000069356137760757531760000003848877020871206805_" gradientUnits="userSpaceOnUse" x1="-495.5839" y1="218.4674" x2="-435.2144" y2="218.4674" gradientTransform="matrix(0.6144 0.2963 -0.8324 0.8213 563.4986 6.7684)">
				<stop  offset="0" style="stop-color:#A0A0A0"/>
				<stop  offset="1" style="stop-color:#B2B2B3"/>
			</linearGradient>
			<path style="opacity:0.5;fill:url(#SVGID_00000069356137760757531760000003848877020871206805_);" d="M127.6,43.9
				c-0.1-0.4-1.2-1-2.2-1.5c-3.4-1.8-11.3-0.2-17.8,1.2c-3.2,0.7-6.1,1.3-8.8,2c-2.6,0.6-5.3,1.4-9.3,2.2c-1.5,0.3-3.4,0.8-5.4,1.3
				c-1.8,0.5-4,1-6.4,1.5c-4.4,0.9-9.4,1.9-14.2,2.3c0.6,0,1.7-0.1,3.1-0.2c4-0.3,10.7-1,17.9-1.9c3-0.4,6.1-0.8,9.2-1.2
				c10.2-1.3,19.6-2.6,21.8-2.8c4.1-0.3,7.7-0.8,9.9-1.4c0.1,0,0.3-0.1,0.4-0.1C126.5,45.1,127.2,44.6,127.6,43.9z"/>
			
				<linearGradient id="SVGID_00000037666351754045547000000017574422494714430100_" gradientUnits="userSpaceOnUse" x1="-540.4495" y1="264.9081" x2="-484.4017" y2="264.9081" gradientTransform="matrix(0.5661 0.3333 -0.9365 0.7989 633.9359 7.6144)">
				<stop  offset="0" style="stop-color:#9A9A9B"/>
				<stop  offset="1" style="stop-color:#AFAFAF"/>
			</linearGradient>
			<path style="opacity:0.5625;fill:url(#SVGID_00000037666351754045547000000017574422494714430100_);" d="M127.5,44
				c-0.1-0.3-1.3-0.8-2.2-1.3c-3.3-1.8-11-0.2-17.7,1.2c-3.2,0.7-6,1.3-8.8,2c-2.5,0.6-5.2,1.3-9.2,2.2c-1.5,0.3-3.3,0.7-5.4,1.2
				c-1.8,0.4-4,0.9-6.4,1.4c-4.3,0.9-9.3,1.8-14.1,2.2c0.6,0,1.7-0.1,3.1-0.2c4-0.3,10.6-1,17.7-1.8c3-0.4,6.1-0.8,9.1-1.2
				c10.1-1.3,19.4-2.6,21.6-2.8c4.2-0.3,7.8-0.8,10.1-1.4c0.2,0,0.3-0.1,0.4-0.1C126.4,45.1,127.2,44.7,127.5,44z"/>
			
				<linearGradient id="SVGID_00000034799238931563736120000009664554115214726311_" gradientUnits="userSpaceOnUse" x1="-572.7175" y1="312.5044" x2="-521.4539" y2="312.5044" gradientTransform="matrix(0.5179 0.3704 -1.0406 0.7766 704.3732 8.4605)">
				<stop  offset="0" style="stop-color:#959595"/>
				<stop  offset="1" style="stop-color:#ACACAC"/>
			</linearGradient>
			<path style="opacity:0.625;fill:url(#SVGID_00000034799238931563736120000009664554115214726311_);" d="M127.5,44
				c-0.2-0.2-1.4-0.6-2.3-1.2c-3.3-1.8-10.8-0.2-17.6,1.2c-3.1,0.7-5.9,1.3-8.7,2c-2.4,0.6-5.1,1.3-9.1,2.1
				c-1.5,0.3-3.3,0.7-5.4,1.2c-1.7,0.4-3.9,0.9-6.3,1.4c-4.2,0.8-9.2,1.7-14,2.1c0.6,0,1.7-0.1,3-0.2c3.9-0.3,10.5-0.9,17.6-1.8
				c3-0.4,6-0.8,9-1.2c10-1.3,19.2-2.6,21.4-2.8c4.3-0.4,7.9-0.8,10.2-1.4c0.2,0,0.3-0.1,0.4-0.1C126.3,45.2,127.1,44.7,127.5,44z"
				/>
			
				<linearGradient id="SVGID_00000178896426426345107630000017981200923280750271_" gradientUnits="userSpaceOnUse" x1="-592.29" y1="359.4978" x2="-546.0623" y2="359.4978" gradientTransform="matrix(0.4697 0.4074 -1.1446 0.7542 774.8105 9.3065)">
				<stop  offset="0" style="stop-color:#8F8F90"/>
				<stop  offset="1" style="stop-color:#A9A9A9"/>
			</linearGradient>
			<path style="opacity:0.6875;fill:url(#SVGID_00000178896426426345107630000017981200923280750271_);" d="M127.5,44.1
				c-0.2-0.1-1.5-0.5-2.4-1c-3.3-1.8-10.5-0.3-17.5,1.2c-3,0.6-5.8,1.3-8.7,2c-2.4,0.5-5,1.3-9.1,2.1c-1.5,0.3-3.3,0.7-5.3,1.2
				c-1.7,0.4-3.9,0.8-6.3,1.3c-4.2,0.8-9.1,1.6-14,2c0.6,0,1.7-0.1,3-0.2c3.9-0.3,10.4-0.9,17.4-1.8c2.9-0.4,6-0.8,8.9-1.2
				c9.9-1.3,18.9-2.6,21.2-2.8c4.3-0.4,8-0.8,10.3-1.4c0.2,0,0.3-0.1,0.4-0.1C126.2,45.2,127.1,44.8,127.5,44.1z"/>
			
				<linearGradient id="SVGID_00000127733404583265522010000011893063199032634045_" gradientUnits="userSpaceOnUse" x1="-599.9521" y1="404.3763" x2="-558.8115" y2="404.3763" gradientTransform="matrix(0.4215 0.4444 -1.2487 0.7319 845.2479 10.1526)">
				<stop  offset="0" style="stop-color:#8A8A8A"/>
				<stop  offset="1" style="stop-color:#A5A5A6"/>
			</linearGradient>
			<path style="opacity:0.75;fill:url(#SVGID_00000127733404583265522010000011893063199032634045_);" d="M127.5,44.1
				c-0.2,0-1.6-0.3-2.5-0.9c-3.2-1.8-10.3-0.3-17.3,1.2c-2.9,0.6-5.8,1.3-8.6,1.9c-2.3,0.5-4.9,1.2-9,2.1c-1.5,0.3-3.3,0.7-5.3,1.2
				c-1.7,0.4-3.8,0.8-6.3,1.2c-4.1,0.7-9,1.5-13.9,2c0.6,0,1.7-0.1,3-0.2c3.9-0.3,10.4-0.9,17.3-1.7c2.9-0.4,5.9-0.8,8.8-1.2
				c9.8-1.3,18.7-2.6,20.9-2.8c4.4-0.4,8.2-0.8,10.4-1.4c0.2,0,0.3-0.1,0.4-0.1C126.1,45.2,127,44.8,127.5,44.1z"/>
			
				<linearGradient id="SVGID_00000074439592081156259300000002116022837168458419_" gradientUnits="userSpaceOnUse" x1="-597.1282" y1="445.9911" x2="-560.9549" y2="445.9911" gradientTransform="matrix(0.3733 0.4815 -1.3527 0.7095 915.6852 10.9986)">
				<stop  offset="0" style="stop-color:#848485"/>
				<stop  offset="1" style="stop-color:#A2A2A3"/>
			</linearGradient>
			<path style="opacity:0.8125;fill:url(#SVGID_00000074439592081156259300000002116022837168458419_);" d="M127.4,44.2
				c-0.3,0.1-1.7-0.2-2.6-0.7c-3.2-1.8-10-0.4-17.2,1.2c-2.9,0.6-5.7,1.3-8.5,1.9c-2.2,0.5-4.8,1.2-9,2.1c-1.5,0.3-3.3,0.7-5.3,1.1
				c-1.7,0.4-3.8,0.7-6.2,1.2c-4.1,0.7-8.9,1.4-13.8,1.9c0.6,0,1.7-0.1,2.9-0.2c3.9-0.3,10.3-0.8,17.1-1.7c2.9-0.4,5.8-0.8,8.7-1.1
				c9.7-1.3,18.5-2.6,20.7-2.8c4.5-0.4,8.3-0.8,10.6-1.4c0.2,0,0.3-0.1,0.4-0.1C126,45.3,127,44.9,127.4,44.2z"/>
			
				<linearGradient id="SVGID_00000096057932738538640460000005347539497042843038_" gradientUnits="userSpaceOnUse" x1="-585.5981" y1="483.6119" x2="-554.143" y2="483.6119" gradientTransform="matrix(0.3251 0.5185 -1.4568 0.6872 986.1225 11.8447)">
				<stop  offset="0" style="stop-color:#7F7F7F"/>
				<stop  offset="1" style="stop-color:#9F9F9F"/>
			</linearGradient>
			<path style="opacity:0.875;fill:url(#SVGID_00000096057932738538640460000005347539497042843038_);" d="M127.4,44.2
				c-0.3,0.2-1.8,0-2.7-0.5c-3.1-1.8-9.8-0.4-17.1,1.2c-2.8,0.6-5.6,1.3-8.5,1.9c-2.2,0.5-4.8,1.2-8.9,2C88.7,49.2,87,49.5,85,50
				c-1.6,0.3-3.7,0.7-6.2,1.1c-4,0.6-8.8,1.3-13.7,1.8c0.7,0,1.7-0.1,2.9-0.2c3.9-0.3,10.2-0.8,16.9-1.7c2.9-0.4,5.8-0.7,8.7-1.1
				c9.6-1.3,18.3-2.6,20.5-2.8c4.6-0.4,8.4-0.8,10.7-1.4c0.2,0,0.3-0.1,0.4-0.1C125.9,45.3,126.9,44.9,127.4,44.2z"/>
			
				<linearGradient id="SVGID_00000112618218382880805550000015151839303678153116_" gradientUnits="userSpaceOnUse" x1="-567.2415" y1="516.8931" x2="-540.1657" y2="516.8931" gradientTransform="matrix(0.2769 0.5556 -1.5608 0.6648 1056.5598 12.6907)">
				<stop  offset="0" style="stop-color:#79797A"/>
				<stop  offset="1" style="stop-color:#9C9C9C"/>
			</linearGradient>
			<path style="opacity:0.9375;fill:url(#SVGID_00000112618218382880805550000015151839303678153116_);" d="M127.4,44.3
				c-0.4,0.4-1.9,0.2-2.8-0.4c-3.1-1.9-9.5-0.5-16.9,1.2c-2.7,0.6-5.5,1.3-8.4,1.9c-2.1,0.4-4.7,1.1-8.8,2c-1.5,0.3-3.2,0.7-5.2,1.1
				c-1.6,0.3-3.7,0.7-6.2,1c-3.9,0.6-8.7,1.2-13.6,1.7c0.7,0,1.7-0.1,2.9-0.2c3.9-0.3,10.1-0.8,16.8-1.6c2.8-0.4,5.7-0.7,8.6-1.1
				c9.4-1.3,18.1-2.6,20.3-2.8c4.7-0.4,8.6-0.8,10.8-1.4c0.2,0,0.3-0.1,0.5-0.1C125.8,45.3,126.9,45,127.4,44.3z"/>
			
				<linearGradient id="SVGID_00000129888376835092568110000014499301065230061746_" gradientUnits="userSpaceOnUse" x1="-543.8465" y1="545.7983" x2="-520.7631" y2="545.7983" gradientTransform="matrix(0.2287 0.5926 -1.6649 0.6425 1126.9972 13.5368)">
				<stop  offset="0" style="stop-color:#747474"/>
				<stop  offset="1" style="stop-color:#999999"/>
			</linearGradient>
			<path style="fill:url(#SVGID_00000129888376835092568110000014499301065230061746_);" d="M127.4,44.3c-0.4,0.5-2,0.3-2.9-0.2
				c-4.1-2.5-14,0.8-25.2,3.1c-2.8,0.6-6.5,1.6-13.9,3c-4,0.8-11.6,1.7-19.7,2.6c2.9-0.2,10.8-0.7,19.5-1.8
				c12.1-1.5,25.6-3.7,28.6-4c5.1-0.5,9.3-0.8,11.4-1.5C125.7,45.4,126.8,45.1,127.4,44.3z"/>
		</g>
		
			<linearGradient id="SVGID_00000149369418285631784520000008035889730897125288_" gradientUnits="userSpaceOnUse" x1="123.7117" y1="34.3108" x2="124.6756" y2="41.6463" gradientTransform="matrix(0.9985 -5.460000e-02 5.460000e-02 0.9985 -30.6334 15.9947)">
			<stop  offset="0" style="stop-color:#EFF0F1"/>
			<stop  offset="0.1608" style="stop-color:#F9FAFB"/>
			<stop  offset="0.4077" style="stop-color:#EAECED"/>
			<stop  offset="0.5836" style="stop-color:#E7E9EB"/>
			<stop  offset="0.6554" style="stop-color:#DFE1E3"/>
			<stop  offset="0.7675" style="stop-color:#C9CBCD"/>
			<stop  offset="0.905" style="stop-color:#A6A8A9"/>
			<stop  offset="1" style="stop-color:#8A8B8C"/>
		</linearGradient>
		<path style="fill:url(#SVGID_00000149369418285631784520000008035889730897125288_);" d="M64,52.9c13.5-1.4,25.6-4.1,37.2-7.9
			c9.2-3,11.6-4.5,16.3-4.7c4-0.2,7.7,5.4,10.1,4.1c-0.1,0.2-0.5,0.4-0.7,0.6c-0.8,0.5-3.3,1.4-11.5,2.7
			C108.1,48.9,79.4,52.5,64,52.9z"/>
		<g>
			<defs>
				<filter id="Adobe_OpacityMaskFilter" filterUnits="userSpaceOnUse" x="64.1" y="40.2" width="63.3" height="12.7">
					<feFlood  style="flood-color:white;flood-opacity:1" result="back"/>
					<feBlend  in="SourceGraphic" in2="back" mode="normal"/>
				</filter>
			</defs>
			
				<mask maskUnits="userSpaceOnUse" x="64.1" y="40.2" width="63.3" height="12.7" id="SVGID_00000182508431935231413700000012288350204788140958_">
				<g class="st29">
					<defs>
						
							<filter id="Adobe_OpacityMaskFilter_00000171719596444800118090000010546292565350540418_" filterUnits="userSpaceOnUse" x="64.1" y="40.2" width="63.3" height="12.7">
							<feFlood  style="flood-color:white;flood-opacity:1" result="back"/>
							<feBlend  in="SourceGraphic" in2="back" mode="normal"/>
						</filter>
					</defs>
					
						<mask maskUnits="userSpaceOnUse" x="64.1" y="40.2" width="63.3" height="12.7" id="SVGID_00000182508431935231413700000012288350204788140958_">
					</mask>
					
						<linearGradient id="SVGID_00000079480936135150599600000005727400821068523927_" gradientUnits="userSpaceOnUse" x1="124.2224" y1="34.3222" x2="124.4737" y2="42.6815" gradientTransform="matrix(0.9985 -5.460000e-02 5.460000e-02 0.9985 -30.6334 15.9947)">
						<stop  offset="0.4975" style="stop-color:#000000"/>
						<stop  offset="0.6596" style="stop-color:#000000"/>
						<stop  offset="0.6937" style="stop-color:#1E1E1E"/>
						<stop  offset="0.8078" style="stop-color:#7D7D7D"/>
						<stop  offset="0.9003" style="stop-color:#C3C3C3"/>
						<stop  offset="0.9665" style="stop-color:#EEEEEE"/>
						<stop  offset="1" style="stop-color:#FFFFFF"/>
					</linearGradient>
					
						<path style="mask:url(#SVGID_00000182508431935231413700000012288350204788140958_);fill:url(#SVGID_00000079480936135150599600000005727400821068523927_);" d="
						M64.1,52.9c13.5-1.4,26.3-4.2,37.9-8c13.3-4.3,13.3-4.7,15.6-4.8c2.7,0,6.6,4.5,9.8,4.4c-0.3,0.3-1.5,1.3-11.9,3.1
						c-5.5,0.9-24.2,3.4-39.5,4.6C71.3,52.6,67.7,52.8,64.1,52.9z"/>
				</g>
			</mask>
			
				<linearGradient id="SVGID_00000176006069610626922900000016683364364665644178_" gradientUnits="userSpaceOnUse" x1="124.2224" y1="34.3222" x2="124.4737" y2="42.6815" gradientTransform="matrix(0.9985 -5.460000e-02 5.460000e-02 0.9985 -30.6334 15.9947)">
				<stop  offset="0.4975" style="stop-color:#8A8B8C"/>
				<stop  offset="0.6596" style="stop-color:#8A8B8C"/>
				<stop  offset="1" style="stop-color:#8A8B8C"/>
			</linearGradient>
			<path style="fill:url(#SVGID_00000176006069610626922900000016683364364665644178_);" d="M64.1,52.9c13.5-1.4,26.3-4.2,37.9-8
				c13.3-4.3,13.3-4.7,15.6-4.8c2.7,0,6.6,4.5,9.8,4.4c-0.3,0.3-1.5,1.3-11.9,3.1c-5.5,0.9-24.2,3.4-39.5,4.6
				C71.3,52.6,67.7,52.8,64.1,52.9z"/>
		</g>
		<g>
			<path class="st33" d="M82.6,50.1c7.1-1.5,13.2-2.7,19.9-4.9c3.1-1,6.2-2.1,9.2-3.2c5.5-2,6.3-2.4,9.4-0.2
				c1.1,0.8,5.3,4.6,6.5,2.4c0.1-0.1,0.2-0.4,0.2-0.6c0.1-0.2,0.1-0.5,0.1-1.3c-0.2,1.2-0.4,1.7-0.5,1.8c-1.1,1.7-5.4-2.1-6.2-2.7
				c-2.7-2.2-4-2-6.5-1.1c-2.2,0.7-3,1.2-5.3,2c-2.4,0.8-6.4,2.2-9.2,3.1c-5.8,1.8-10.5,2.8-18,4.5c-4.2,1-10.2,2-14.7,2.7
				c-1.4,0.2-4.2,0.5-6,0.6c2,0,4.5-0.2,6-0.4C72.1,52,78.3,51,82.6,50.1z"/>
		</g>
	</g>
	<g>
		<circle class="st34" cx="108.4" cy="21.8" r="1.4"/>
		<g>
			<g>
				<path class="st35" d="M59.7,25.1c0.7-1.1,1.7-1.6,3-1.6c2.8,0.1,4.1,1.9,4.1,5.4c0,3.5-1.6,5.2-4.8,5.3c-3.2,0-4.9-1.5-4.9-4.7
					v-8.9h1.3c0.9,0,1.3,0.5,1.3,1.3V25.1z M59.7,28.8c0,2.1,0.7,3.2,2.2,3.2c1.5,0,2.2-1.1,2.2-3.2c-0.1-2-0.8-3-2.2-3
					S59.8,26.8,59.7,28.8z"/>
				<path class="st35" d="M76.3,29.9c0,1.8-0.5,3-1.4,3.5C74,34,73,34.2,71.9,34.2c-1.1,0-2-0.3-3-0.9c-0.9-0.6-1.4-1.7-1.4-3.5
					v-6.3h2.6v6.8c0,1.2,0.6,1.7,1.8,1.7c1.2,0,1.8-0.6,1.8-1.7v-5.5c0-0.9,0.4-1.3,1.3-1.3h1.3V29.9z"/>
				<path class="st35" d="M81.4,34.3c-3.1-0.1-4.7-1.9-4.7-5.5c0-3.5,1.6-5.3,4.8-5.3c3.3,0,4.9,2,4.7,6.1h-6.7
					c0.1,1.6,0.8,2.4,2.1,2.4c0.6,0,1.2-0.3,1.7-0.7c0.2-0.3,0.5-0.4,0.9-0.4H86C85.4,33,84,34.3,81.4,34.3z M79.5,27.7h3.9
					c-0.2-1.4-0.8-2.1-1.9-2.1C80.3,25.6,79.7,26.3,79.5,27.7z"/>
				<path class="st35" d="M94.4,34c-0.9-0.1-1.3-0.5-1.3-1.3v-5.3c-0.1-1.1-0.6-1.6-1.8-1.6s-1.8,0.5-1.8,1.6V34h-2.7v-6.1
					c0-3,1.5-4.4,4.5-4.4c3,0,4.4,1.5,4.4,4.4V34H94.4z"/>
				<path class="st35" d="M106.3,23.6L102.6,34h-2.8l-3.7-10.4h2.9l2.1,7.3l1.8-6.4c0.2-0.6,0.6-0.9,1.3-0.9H106.3z"/>
				<path class="st35" d="M108.4,23.6c0.8,0,1.3,0.4,1.3,1.3V34h-2.6V23.6H108.4z"/>
			</g>
			<g>
				<path class="st34" d="M41.7,23.3c-3,1.6-5.3,5-5.3,5v6.1c0,0,2.1,1.5,5.3,1.5c3,0,5.3-1.5,5.3-1.5v-6.1
					C47,28.3,44.8,24.9,41.7,23.3z"/>
				<path class="st36" d="M41.7,23.3c4.5-2.7,9.4-2.7,10.6-1.3c1.2,1.5,2.5,7.7-5.3,12.3v-6.1C47,28.3,44.8,24.9,41.7,23.3z"/>
				<path class="st35" d="M41.7,23.3c-4.5-2.7-9.4-2.7-10.6-1.3c-1.2,1.5-2.5,7.7,5.3,12.3v-6.1C36.4,28.3,38.7,24.9,41.7,23.3z"/>
				<path class="st36" d="M36.7,16.5c0,0,1.3-1.4,5.2-1.4s5.1,1.4,5.1,1.4v-0.8c0,0-1.4-1.6-5.2-1.6c-3.7,0-5.2,1.7-5.2,1.7V16.5z"
					/>
				<path class="st36" d="M47,16.5c0,0-1.3,1.4-5.2,1.4s-5.1-1.4-5.1-1.4v0.8c0,0,1.4,1.6,5.2,1.6c3.7,0,5.2-1.7,5.2-1.7V16.5z"/>
			</g>
		</g>
	</g>
	<g>
		<path d="M66.6,16c-0.2-0.1-0.4-0.3-0.5-0.5c-0.1-0.2-0.2-0.5-0.2-0.7v-2.6c0-0.1,0-0.1,0.1-0.1h0.6c0.1,0,0.1,0,0.1,0.1v2.6
			c0,0.2,0.1,0.4,0.2,0.5s0.3,0.2,0.5,0.2c0.2,0,0.4-0.1,0.5-0.2S68,15,68,14.8v-2.6c0-0.1,0-0.1,0.1-0.1h0.6c0.1,0,0.1,0,0.1,0.1
			v2.6c0,0.3-0.1,0.5-0.2,0.7c-0.1,0.2-0.3,0.4-0.5,0.5c-0.2,0.1-0.5,0.2-0.8,0.2C67,16.2,66.8,16.1,66.6,16z"/>
		<path d="M71.8,13.3c0.2,0.2,0.3,0.5,0.3,0.8V16c0,0.1,0,0.1-0.1,0.1h-0.6c-0.1,0-0.1,0-0.1-0.1v-1.7c0-0.2,0-0.3-0.1-0.4
			c-0.1-0.1-0.2-0.1-0.3-0.1c-0.1,0-0.3,0-0.4,0.1c-0.1,0.1-0.1,0.2-0.1,0.4V16c0,0.1,0,0.1-0.1,0.1h-0.6c-0.1,0-0.1,0-0.1-0.1v-2.8
			c0-0.1,0-0.1,0.1-0.1h0.6c0.1,0,0.1,0,0.1,0.1v0.2c0,0,0,0,0,0c0,0,0,0,0,0c0.2-0.2,0.4-0.3,0.7-0.3S71.6,13.2,71.8,13.3z"/>
		<path d="M75.8,12h0.6c0.1,0,0.1,0,0.1,0.1V16c0,0.1,0,0.1-0.1,0.1h-0.6c-0.1,0-0.1,0-0.1-0.1v-0.2c0,0,0,0,0,0c0,0,0,0,0,0
			c-0.2,0.2-0.4,0.3-0.7,0.3c-0.3,0-0.5-0.1-0.7-0.2c-0.2-0.2-0.3-0.4-0.4-0.6c-0.1-0.2-0.1-0.4-0.1-0.7c0-0.3,0-0.5,0.1-0.7
			c0.1-0.2,0.2-0.4,0.4-0.6c0.2-0.1,0.4-0.2,0.7-0.2c0.3,0,0.5,0.1,0.7,0.3c0,0,0,0,0,0c0,0,0,0,0,0L75.8,12
			C75.7,12.1,75.7,12,75.8,12z M75.7,14.6c0-0.3,0-0.5-0.1-0.6c-0.1-0.2-0.2-0.2-0.4-0.2c-0.2,0-0.3,0.1-0.4,0.2
			c-0.1,0.2-0.1,0.4-0.1,0.6c0,0.2,0,0.4,0.1,0.6c0.1,0.2,0.2,0.3,0.4,0.3c0.2,0,0.3-0.1,0.4-0.3C75.6,15,75.7,14.9,75.7,14.6z"/>
		<path d="M79.1,15.2C79.2,15.2,79.2,15.2,79.1,15.2c0.1,0,0.1,0,0.1,0l0.3,0.3c0,0,0,0,0,0.1c0,0,0,0.1,0,0.1
			c-0.1,0.2-0.3,0.3-0.5,0.4c-0.2,0.1-0.4,0.1-0.7,0.1c-0.4,0-0.7-0.1-0.9-0.3c-0.2-0.2-0.4-0.4-0.5-0.8c0-0.2-0.1-0.4-0.1-0.5
			c0-0.2,0-0.4,0.1-0.6c0.1-0.3,0.2-0.5,0.5-0.7c0.2-0.2,0.5-0.3,0.8-0.3c0.4,0,0.7,0.1,0.9,0.3c0.2,0.2,0.4,0.5,0.4,1
			c0,0.1,0,0.3,0,0.4c0,0.1,0,0.1-0.1,0.1h-1.8c0,0,0,0,0,0c0,0.1,0,0.1,0,0.2c0,0.1,0.1,0.2,0.2,0.3c0.1,0.1,0.3,0.1,0.4,0.1
			C78.8,15.5,79,15.4,79.1,15.2z M78.1,13.9C78,13.9,78,14,77.9,14.1c0,0.1,0,0.1,0,0.1c0,0,0,0,0,0h1c0,0,0,0,0,0c0,0,0-0.1,0-0.1
			c0-0.1-0.1-0.2-0.2-0.3c-0.1-0.1-0.2-0.1-0.3-0.1C78.3,13.8,78.2,13.8,78.1,13.9z"/>
		<path d="M80.8,16c-0.2-0.1-0.3-0.2-0.5-0.3c-0.1-0.1-0.2-0.3-0.2-0.4v0c0-0.1,0-0.1,0.1-0.1h0.6c0.1,0,0.1,0,0.1,0v0
			c0,0.1,0,0.2,0.1,0.2c0.1,0.1,0.2,0.1,0.4,0.1c0.1,0,0.2,0,0.3-0.1c0.1-0.1,0.1-0.1,0.1-0.2c0-0.1,0-0.1-0.1-0.2
			c-0.1,0-0.2-0.1-0.3-0.1c-0.2-0.1-0.3-0.1-0.4-0.1c-0.3-0.1-0.5-0.2-0.6-0.3c-0.1-0.1-0.2-0.3-0.2-0.5c0-0.3,0.1-0.5,0.3-0.7
			c0.2-0.2,0.5-0.3,0.9-0.3c0.2,0,0.5,0,0.7,0.1c0.2,0.1,0.3,0.2,0.4,0.3c0.1,0.1,0.2,0.3,0.2,0.5c0,0,0,0,0,0c0,0,0,0-0.1,0H82
			c-0.1,0-0.1,0-0.1,0v0c0-0.1,0-0.2-0.1-0.2c-0.1-0.1-0.2-0.1-0.3-0.1c-0.1,0-0.2,0-0.3,0.1c-0.1,0-0.1,0.1-0.1,0.2
			c0,0.1,0,0.1,0.1,0.2c0.1,0,0.2,0.1,0.4,0.1c0.1,0,0.2,0.1,0.3,0.1c0.3,0.1,0.5,0.2,0.7,0.3c0.2,0.1,0.2,0.3,0.2,0.6
			c0,0.3-0.1,0.5-0.3,0.7c-0.2,0.2-0.5,0.2-0.9,0.2C81.2,16.2,81,16.1,80.8,16z"/>
		<path d="M85.1,13.2c0.2,0.1,0.4,0.2,0.5,0.4c0.1,0.2,0.2,0.3,0.2,0.5v2c0,0.1,0,0.1-0.1,0.1H85c-0.1,0-0.1,0-0.1-0.1v-0.1
			c0,0,0,0,0,0c0,0,0,0,0,0c-0.2,0.2-0.4,0.3-0.8,0.3c-0.3,0-0.5-0.1-0.7-0.2c-0.2-0.1-0.3-0.4-0.3-0.7c0-0.3,0.1-0.5,0.3-0.7
			c0.2-0.2,0.5-0.2,0.9-0.2h0.6c0,0,0,0,0,0v-0.1c0-0.1,0-0.2-0.1-0.3c-0.1-0.1-0.2-0.1-0.3-0.1c-0.1,0-0.2,0-0.3,0.1
			c-0.1,0-0.1,0.1-0.2,0.2c0,0.1-0.1,0.1-0.1,0.1L83.3,14c0,0-0.1,0-0.1,0c0,0,0,0,0-0.1c0-0.2,0.1-0.3,0.2-0.4
			c0.1-0.1,0.3-0.2,0.5-0.3c0.2-0.1,0.4-0.1,0.6-0.1C84.7,13.1,84.9,13.1,85.1,13.2z M84.8,15.4c0.1-0.1,0.2-0.2,0.2-0.3v-0.2
			c0,0,0,0,0,0h-0.4c-0.2,0-0.3,0-0.4,0.1c-0.1,0.1-0.2,0.2-0.2,0.3c0,0.1,0,0.2,0.1,0.2c0.1,0.1,0.2,0.1,0.3,0.1
			C84.5,15.5,84.6,15.5,84.8,15.4z"/>
		<path d="M88.1,13.1c0,0,0.1,0.1,0.1,0.1l-0.1,0.6c0,0,0,0.1,0,0.1c0,0,0,0-0.1,0c-0.1,0-0.1,0-0.2,0c0,0-0.1,0-0.1,0
			c-0.1,0-0.3,0.1-0.4,0.2c-0.1,0.1-0.1,0.2-0.1,0.4V16c0,0.1,0,0.1-0.1,0.1h-0.6c-0.1,0-0.1,0-0.1-0.1v-2.8c0-0.1,0-0.1,0.1-0.1
			h0.6c0.1,0,0.1,0,0.1,0.1v0.2c0,0,0,0,0,0c0,0,0,0,0,0c0.2-0.2,0.4-0.3,0.6-0.3C88,13.1,88.1,13.1,88.1,13.1z"/>
		<path d="M90.4,13.1c0,0,0.1,0.1,0.1,0.1l-0.1,0.6c0,0,0,0.1,0,0.1c0,0,0,0-0.1,0c-0.1,0-0.1,0-0.2,0c0,0-0.1,0-0.1,0
			c-0.1,0-0.3,0.1-0.4,0.2c-0.1,0.1-0.1,0.2-0.1,0.4V16c0,0.1,0,0.1-0.1,0.1h-0.6c-0.1,0-0.1,0-0.1-0.1v-2.8c0-0.1,0-0.1,0.1-0.1
			h0.6c0.1,0,0.1,0,0.1,0.1v0.2c0,0,0,0,0,0c0,0,0,0,0,0c0.2-0.2,0.4-0.3,0.6-0.3C90.2,13.1,90.3,13.1,90.4,13.1z"/>
		<path d="M91.2,15.9c-0.2-0.2-0.4-0.4-0.5-0.7c-0.1-0.2-0.1-0.4-0.1-0.6c0-0.2,0-0.4,0.1-0.6c0.1-0.3,0.3-0.5,0.5-0.7
			c0.2-0.2,0.5-0.2,0.8-0.2c0.3,0,0.6,0.1,0.8,0.2c0.2,0.2,0.4,0.4,0.5,0.7c0.1,0.2,0.1,0.4,0.1,0.6c0,0.2,0,0.4-0.1,0.6
			c-0.1,0.3-0.3,0.5-0.5,0.7c-0.2,0.2-0.5,0.3-0.8,0.3C91.7,16.2,91.5,16.1,91.2,15.9z M92.4,15.3c0.1-0.1,0.2-0.2,0.2-0.3
			c0-0.1,0-0.2,0-0.4c0-0.2,0-0.3,0-0.4c0-0.1-0.1-0.2-0.2-0.3s-0.2-0.1-0.3-0.1c-0.1,0-0.2,0-0.3,0.1c-0.1,0.1-0.2,0.2-0.2,0.3
			c0,0.1,0,0.3,0,0.4c0,0.2,0,0.3,0,0.4c0,0.1,0.1,0.2,0.2,0.3c0.1,0.1,0.2,0.1,0.3,0.1C92.2,15.5,92.3,15.4,92.4,15.3z"/>
		<path d="M94,16v-3.9c0-0.1,0-0.1,0.1-0.1h0.6c0.1,0,0.1,0,0.1,0.1V16c0,0.1,0,0.1-0.1,0.1L94,16C94,16.1,94,16.1,94,16z"/>
		<path d="M95.5,16v-3.9c0-0.1,0-0.1,0.1-0.1h0.6c0.1,0,0.1,0,0.1,0.1V16c0,0.1,0,0.1-0.1,0.1L95.5,16C95.5,16.1,95.5,16.1,95.5,16z
			"/>
		<path d="M97.4,15.9c-0.2-0.2-0.4-0.4-0.5-0.7c-0.1-0.2-0.1-0.4-0.1-0.6c0-0.2,0-0.4,0.1-0.6c0.1-0.3,0.3-0.5,0.5-0.7
			c0.2-0.2,0.5-0.2,0.8-0.2c0.3,0,0.6,0.1,0.8,0.2c0.2,0.2,0.4,0.4,0.5,0.7c0.1,0.2,0.1,0.4,0.1,0.6c0,0.2,0,0.4-0.1,0.6
			c-0.1,0.3-0.3,0.5-0.5,0.7c-0.2,0.2-0.5,0.3-0.8,0.3C97.9,16.2,97.6,16.1,97.4,15.9z M98.6,15.3c0.1-0.1,0.2-0.2,0.2-0.3
			c0-0.1,0-0.2,0-0.4c0-0.2,0-0.3,0-0.4c0-0.1-0.1-0.2-0.2-0.3c-0.1-0.1-0.2-0.1-0.3-0.1c-0.1,0-0.2,0-0.3,0.1
			c-0.1,0.1-0.2,0.2-0.2,0.3c0,0.1,0,0.3,0,0.4c0,0.2,0,0.3,0,0.4c0,0.1,0.1,0.2,0.2,0.3c0.1,0.1,0.2,0.1,0.3,0.1
			C98.4,15.5,98.5,15.4,98.6,15.3z"/>
		<path d="M103.2,12h0.6c0.1,0,0.1,0,0.1,0.1V16c0,0.1,0,0.1-0.1,0.1h-0.6c-0.1,0-0.1,0-0.1-0.1v-0.2c0,0,0,0,0,0c0,0,0,0,0,0
			c-0.2,0.2-0.4,0.3-0.7,0.3c-0.3,0-0.5-0.1-0.7-0.2c-0.2-0.2-0.3-0.4-0.4-0.6c-0.1-0.2-0.1-0.4-0.1-0.7c0-0.3,0-0.5,0.1-0.7
			c0.1-0.2,0.2-0.4,0.4-0.6c0.2-0.1,0.4-0.2,0.7-0.2c0.3,0,0.5,0.1,0.7,0.3c0,0,0,0,0,0c0,0,0,0,0,0L103.2,12
			C103.1,12.1,103.2,12,103.2,12z M103.1,14.6c0-0.3,0-0.5-0.1-0.6c-0.1-0.2-0.2-0.2-0.4-0.2c-0.2,0-0.3,0.1-0.4,0.2
			c-0.1,0.2-0.1,0.4-0.1,0.6c0,0.2,0,0.4,0.1,0.6c0.1,0.2,0.2,0.3,0.4,0.3c0.2,0,0.3-0.1,0.4-0.3C103.1,15,103.1,14.9,103.1,14.6z"
			/>
		<path d="M106.6,15.2C106.6,15.2,106.7,15.2,106.6,15.2c0.1,0,0.1,0,0.1,0l0.3,0.3c0,0,0,0,0,0.1c0,0,0,0.1,0,0.1
			c-0.1,0.2-0.3,0.3-0.5,0.4c-0.2,0.1-0.4,0.1-0.7,0.1c-0.4,0-0.7-0.1-0.9-0.3c-0.2-0.2-0.4-0.4-0.5-0.8c0-0.2-0.1-0.4-0.1-0.5
			c0-0.2,0-0.4,0.1-0.6c0.1-0.3,0.2-0.5,0.5-0.7c0.2-0.2,0.5-0.3,0.8-0.3c0.4,0,0.7,0.1,0.9,0.3c0.2,0.2,0.4,0.5,0.4,1
			c0,0.1,0,0.3,0,0.4c0,0.1,0,0.1-0.1,0.1h-1.8c0,0,0,0,0,0c0,0.1,0,0.1,0,0.2c0,0.1,0.1,0.2,0.2,0.3c0.1,0.1,0.3,0.1,0.4,0.1
			C106.3,15.5,106.5,15.4,106.6,15.2z M105.6,13.9c-0.1,0.1-0.1,0.1-0.2,0.3c0,0.1,0,0.1,0,0.1c0,0,0,0,0,0h1c0,0,0,0,0,0
			c0,0,0-0.1,0-0.1c0-0.1-0.1-0.2-0.2-0.3c-0.1-0.1-0.2-0.1-0.3-0.1C105.8,13.8,105.7,13.8,105.6,13.9z"/>
		<path d="M108.2,14c-0.1-0.1-0.2-0.2-0.2-0.4c0-0.1,0.1-0.3,0.2-0.4c0.1-0.1,0.2-0.1,0.4-0.1c0.1,0,0.3,0,0.4,0.1s0.2,0.2,0.2,0.4
			c0,0.1-0.1,0.3-0.2,0.4c-0.1,0.1-0.2,0.1-0.4,0.1C108.4,14.2,108.3,14.1,108.2,14z M108.2,15.9c-0.1-0.1-0.2-0.2-0.2-0.4
			c0-0.1,0.1-0.3,0.2-0.4c0.1-0.1,0.2-0.1,0.4-0.1c0.1,0,0.3,0,0.4,0.1c0.1,0.1,0.2,0.2,0.2,0.4c0,0.1-0.1,0.3-0.2,0.4
			c-0.1,0.1-0.2,0.1-0.4,0.1C108.4,16.1,108.3,16,108.2,15.9z"/>
	</g>
</g>
</svg>
