<?xml version="1.0" encoding="utf-8"?>
<!-- Generator: Adobe Illustrator 25.4.1, SVG Export Plug-In . SVG Version: 6.00 Build 0)  -->
<svg version="1.1" id="Capa_1" xmlns="http://www.w3.org/2000/svg" xmlns:xlink="http://www.w3.org/1999/xlink" x="0px" y="0px"
	 viewBox="0 0 252.4 166" style="enable-background:new 0 0 252.4 166;" xml:space="preserve">
<style type="text/css">
	.st0{fill:#F45197;}
	.st1{fill:#F32735;}
	.st2{fill:#D50057;}
	.st3{fill:#FF6B00;}
	.st4{fill:#B8BE14;}
	.st5{fill:#789C4A;}
	.st6{fill:#5F6638;}
	.st7{fill:#D41C59;}
	.st8{fill:none;stroke:#D41C59;stroke-width:3;stroke-miterlimit:10;}
	.st9{fill:none;stroke:#D41C59;stroke-width:2;stroke-miterlimit:10;}
	.st10{fill:url(#SVGID_1_);}
	.st11{opacity:0;fill:#CBCBCC;}
	.st12{opacity:6.250000e-02;fill:url(#SVGID_00000155849600527355873290000004302928946431951033_);}
	.st13{opacity:0.125;fill:url(#SVGID_00000167369033001289860190000016041156573167732137_);}
	.st14{opacity:0.1875;fill:url(#SVGID_00000049212205332774915830000011678754382937715615_);}
	.st15{opacity:0.25;fill:url(#SVGID_00000179618080311958771020000014033888741249727118_);}
	.st16{opacity:0.3125;fill:url(#SVGID_00000076581702327145817130000009661511588676120207_);}
	.st17{opacity:0.375;fill:url(#SVGID_00000003096084627350308170000012648667820585120146_);}
	.st18{opacity:0.4375;fill:url(#SVGID_00000122696091844786438720000001421867672429750459_);}
	.st19{opacity:0.5;fill:url(#SVGID_00000047766238952508177180000001829218417293273488_);}
	.st20{opacity:0.5625;fill:url(#SVGID_00000181054364636025229820000006002045377945028276_);}
	.st21{opacity:0.625;fill:url(#SVGID_00000000210260167818299010000004386863691511836594_);}
	.st22{opacity:0.6875;fill:url(#SVGID_00000003100574370639228200000017972585438513990819_);}
	.st23{opacity:0.75;fill:url(#SVGID_00000011719533587312430580000011231888667402146968_);}
	.st24{opacity:0.8125;fill:url(#SVGID_00000154406700443981603860000006703592891278475151_);}
	.st25{opacity:0.875;fill:url(#SVGID_00000138540935359851883090000017058593206497942187_);}
	.st26{opacity:0.9375;fill:url(#SVGID_00000051375117219864727140000011214052743564915896_);}
	.st27{fill:url(#SVGID_00000177462759433819545550000017471192763095596220_);}
	.st28{fill:url(#SVGID_00000177450155602537853570000002863628008764610729_);}
	.st29{filter:url(#Adobe_OpacityMaskFilter);}
	.st30{filter:url(#Adobe_OpacityMaskFilter_00000123408680883142194310000003751462952645480350_);}
	
		.st31{mask:url(#SVGID_00000060031327284586450220000016368911926331553684_);fill:url(#SVGID_00000161601421807633567510000011558983849224175541_);}
	.st32{fill:url(#SVGID_00000013872500633928041670000012225894629048555907_);}
	.st33{fill:#FFFFFF;}
	.st34{fill:#73BE49;}
	.st35{fill:#32A7DE;}
	.st36{fill:#FCCA2D;}
</style>
<g>
	<g>
		<g>
			<polygon class="st2" points="117.9,73.2 95.7,36.9 95.7,36.9 95.7,36.9 64.3,22.1 75.2,57.4 110.6,77.9 108.5,71 116.1,74.6 
				116.1,74.5 117.5,75.2 			"/>
		</g>
		<polygon class="st2" points="149.6,0.4 126.2,32.4 126.2,32.4 126.2,32.4 131.5,39.6 128,71.5 132.8,64.8 133.6,68.8 144.2,42.8 
			156.7,36.9 156.7,36.9 156.9,36.6 		"/>
		<g>
			<polygon class="st2" points="126.2,32.4 126.2,32.4 126.2,32.4 102.8,0.4 95.6,36.6 95.7,36.9 108.2,42.8 118.8,68.8 119.6,64.8 
				124.5,71.5 120.9,39.6 			"/>
		</g>
		<g>
			<polygon class="st2" points="156.7,36.9 134.5,73.2 134.9,75.2 136.3,74.6 136.2,74.6 143.9,71 141.8,77.9 177.2,57.4 
				188.1,22.1 			"/>
		</g>
		<g>
			<polygon class="st2" points="120.3,77.9 120.8,78.8 120.7,78.8 125.2,86.1 125.2,75.4 120.5,69.1 119.1,76.1 			"/>
			<polygon class="st2" points="111.4,74.3 113.5,81.1 123.1,86.7 117.3,77.1 			"/>
			<polygon class="st2" points="131.9,69.1 127.2,75.4 127.2,86.1 131.7,78.7 132.2,77.9 133.3,76.1 			"/>
			<polygon class="st2" points="135.1,77.1 129.3,86.7 138.9,81.1 141,74.3 			"/>
		</g>
	</g>
	<g>
		<path class="st2" d="M36.9,108v26.1c0,2.3-1.9,4.2-4.2,4.2c-2.3,0-4.2-1.9-4.2-4.2v-0.1c-2.9,3-6.9,4.9-11.2,4.9
			c-9,0-16.3-8-16.3-17.9c0-10,7.3-18,16.3-18c4.4,0,8.3,1.9,11.2,4.9V108c0-2.3,1.9-4.2,4.2-4.2C35.1,103.8,36.9,105.7,36.9,108z
			 M28.8,121.1c0-5.6-4.3-10.1-9.7-10.1s-9.7,4.5-9.7,10.1c0,5.6,4.3,10,9.7,10S28.8,126.6,28.8,121.1z"/>
		<path class="st2" d="M41.5,134.1V93.8c0-2.3,1.9-4.2,4.2-4.2c2.3,0,4.2,1.9,4.2,4.2v40.3c0,2.3-1.9,4.2-4.2,4.2
			C43.3,138.3,41.5,136.4,41.5,134.1z"/>
		<path class="st2" d="M98.7,103.1c8.8,0,15.3,6.6,15.3,14.8v16.2c0,2.3-1.9,4.1-4.2,4.2c-2.3,0-4.2-1.8-4.2-4.2V120
			c0-5-3.9-9-8.7-9c-4.8,0-8.7,4-8.7,9v14.1c0,2.3-1.9,4.2-4.2,4.2c-2.3,0-4.2-1.9-4.2-4.2V120c0-5-3.9-9-8.7-9c-4.8,0-8.7,4-8.7,9
			v14.1c0,2.3-1.9,4.2-4.2,4.2c-2.3,0-4.2-1.9-4.2-4.2V108c0-2.3,1.9-4.2,4.2-4.2c2.2,0,4,1.7,4.2,3.8c2.7-2.8,6.5-4.5,10.8-4.5
			c4.9,0,9.3,2.4,12,6C88.5,105.5,93.4,103.1,98.7,103.1L98.7,103.1z"/>
		<path class="st2" d="M153.8,108v26.1c0,2.3-1.9,4.2-4.2,4.2c-2.3,0-4.2-1.9-4.2-4.2v-0.1c-2.9,3-6.9,4.9-11.3,4.9
			c-9,0-16.3-8-16.3-17.9c0-10,7.3-18,16.3-18c4.4,0,8.3,1.9,11.3,4.9V108c0-2.3,1.9-4.2,4.2-4.2C151.9,103.8,153.8,105.7,153.8,108
			z M145.6,121.1c0-5.6-4.3-10.1-9.7-10.1c-5.4,0-9.7,4.5-9.7,10.1c0,5.6,4.3,10,9.7,10C141.3,131.1,145.6,126.6,145.6,121.1z"/>
		<path class="st2" d="M160.5,136.1c-1.3-0.6-2.2-1.9-2.2-3.4c0-2.7,2.8-4.6,5.3-3.5c2.2,1,5,1.7,8.4,1.7c3.7,0,6.4-0.9,6.4-2.6
			c0-1.9-3.4-2.6-5.8-3c-5.9-1-13.7-3.4-13.7-11.2c0-8,8.3-11.1,14.2-11.1c3.4,0,7.5,1,11.1,2.6c1.4,0.6,2.3,1.9,2.3,3.5
			c0,2.1-1.7,3.8-3.8,3.8c-0.5,0-0.9-0.1-1.3-0.2c-2.5-0.9-5.5-1.8-8.3-1.8c-3.5,0-5.3,1.3-5.3,3c0,2.1,3.1,2.8,4.7,3.1
			c7.6,1.6,14.9,3.5,14.9,10.8c0,8.3-9.4,11-15.2,11C168.5,138.9,164.2,137.8,160.5,136.1z"/>
		<path class="st2" d="M225.9,108v26.1c0,2.3-1.9,4.2-4.2,4.2c-2.2,0-4-1.7-4.2-3.8c-2.7,2.8-6.5,4.5-10.8,4.5
			c-8.3,0-14.9-6.6-14.9-14.8V108c0-2.3,1.9-4.2,4.2-4.2c2.3,0,4.2,1.9,4.2,4.2v14.1c0,5,3.9,9,8.7,9c4.8,0,8.7-4,8.7-9V108
			c0-2.3,1.9-4.2,4.2-4.2C224,103.8,225.9,105.7,225.9,108z"/>
		<path class="st2" d="M251.4,107.4c0,2.1-1.6,3.9-3.6,4.2c-4.7,0.7-9,4.3-9,11.2v11.3c0,2.3-1.9,4.2-4.2,4.2
			c-2.3,0-4.2-1.9-4.2-4.2V108c0-2.3,1.9-4.2,4.2-4.2c2,0,3.7,1.4,4.1,3.4c2.5-2.4,5.5-4.1,8.4-4.1
			C249.5,103.1,251.4,105,251.4,107.4z"/>
	</g>
	<g>
		<path class="st2" d="M35.6,162.5H32v3h-0.8v-6.7h4.7v0.8H32v2.1h3.6V162.5z"/>
		<path class="st2" d="M46.7,158.8c1.5,0,2.3,0.7,2.3,1.9c0,1.2-0.9,1.9-2.3,1.9h-0.1l2.3,2.9h-1l-2.3-2.9h-0.8v2.9H44v-6.7H46.7z
			 M44.9,159.6v2.2h1.8c1,0,1.5-0.4,1.5-1.1c0-0.7-0.5-1.1-1.5-1.1H44.9z"/>
		<path class="st2" d="M62.8,165.5h-0.9l-0.7-1.8H58l-0.7,1.8h-0.9l2.7-6.7h1L62.8,165.5z M58.3,162.9h2.6l-1.3-3.2L58.3,162.9z"/>
		<path class="st2" d="M76.3,160.1l-0.7,0.5c-0.4-0.6-1.2-1-2-1c-1.5,0-2.6,1.1-2.6,2.6c0,1.6,1.1,2.6,2.6,2.6c0.9,0,1.6-0.4,2-1
			l0.7,0.5c-0.6,0.8-1.6,1.3-2.7,1.3c-2,0-3.5-1.4-3.5-3.4c0-2,1.5-3.4,3.5-3.4C74.7,158.7,75.7,159.2,76.3,160.1z"/>
		<path class="st2" d="M90.1,160.1l-0.7,0.5c-0.4-0.6-1.2-1-2-1c-1.5,0-2.6,1.1-2.6,2.6c0,1.6,1.1,2.6,2.6,2.6c0.9,0,1.6-0.4,2-1
			l0.7,0.5c-0.6,0.8-1.6,1.3-2.7,1.3c-2,0-3.5-1.4-3.5-3.4c0-2,1.5-3.4,3.5-3.4C88.5,158.7,89.6,159.2,90.1,160.1z"/>
		<path class="st2" d="M99.1,165.5h-0.8v-6.7h0.8V165.5z"/>
		<path class="st2" d="M114.2,162.1c0,2-1.5,3.4-3.5,3.4c-2,0-3.5-1.4-3.5-3.4c0-2,1.5-3.4,3.5-3.4
			C112.8,158.7,114.2,160.1,114.2,162.1z M108.2,162.1c0,1.6,1.1,2.6,2.6,2.6s2.6-1.1,2.6-2.6c0-1.6-1.1-2.6-2.6-2.6
			S108.2,160.6,108.2,162.1z"/>
		<path class="st2" d="M128,165.5h-0.8l-4-5.2l0,5.2h-0.8v-6.7h0.8l4,5.2v-5.2h0.8V165.5z"/>
		<path class="st2" d="M142.3,165.5h-0.9l-0.7-1.8h-3.2l-0.7,1.8h-0.9l2.7-6.7h1L142.3,165.5z M137.8,162.9h2.6l-1.3-3.2
			L137.8,162.9z"/>
		<path class="st2" d="M157.1,165.5h-0.8v-5.7l-2.2,5h-0.9l-2.2-5v5.7h-0.8v-6.7h1.3l2.2,5l2.2-5h1.3V165.5z"/>
		<path class="st2" d="M166.5,165.5h-0.8v-6.7h0.8V165.5z"/>
		<path class="st2" d="M179.8,165.5h-4.7v-6.7h4.7v0.8H176v2.1h3.7v0.8H176v2.2h3.9V165.5z"/>
		<path class="st2" d="M193.9,165.5h-0.8l-4-5.2l0,5.2h-0.8v-6.7h0.8l4,5.2v-5.2h0.8V165.5z"/>
		<path class="st2" d="M207.1,159.6h-2.3v5.9H204v-5.9h-2.3v-0.8h5.4V159.6z"/>
		<path class="st2" d="M221.2,162.1c0,2-1.5,3.4-3.5,3.4c-2,0-3.5-1.4-3.5-3.4c0-2,1.5-3.4,3.5-3.4
			C219.8,158.7,221.2,160.1,221.2,162.1z M215.2,162.1c0,1.6,1.1,2.6,2.6,2.6c1.5,0,2.6-1.1,2.6-2.6c0-1.6-1.1-2.6-2.6-2.6
			C216.3,159.5,215.2,160.6,215.2,162.1z"/>
	</g>
</g>
</svg>
