<?xml version="1.0" encoding="utf-8"?>
<!-- Generator: Adobe Illustrator 25.4.1, SVG Export Plug-In . SVG Version: 6.00 Build 0)  -->
<svg version="1.1" id="Capa_1" xmlns="http://www.w3.org/2000/svg" xmlns:xlink="http://www.w3.org/1999/xlink" x="0px" y="0px"
	 viewBox="0 0 103 75" style="enable-background:new 0 0 103 75;" xml:space="preserve">
<style type="text/css">
	.st0{fill:#F45197;}
	.st1{fill:#F32735;}
	.st2{fill:#D50057;}
	.st3{fill:#FF6B00;}
	.st4{fill:#B8BE14;}
	.st5{fill:#789C4A;}
	.st6{fill:#5F6638;}
	.st7{fill:#D41C59;}
	.st8{fill:none;stroke:#D41C59;stroke-width:3;stroke-miterlimit:10;}
	.st9{fill:none;stroke:#D41C59;stroke-width:2;stroke-miterlimit:10;}
	.st10{fill:url(#SVGID_1_);}
	.st11{opacity:0;fill:#CBCBCC;}
	.st12{opacity:6.250000e-02;fill:url(#SVGID_00000018236268266033166750000018388289739037477001_);}
	.st13{opacity:0.125;fill:url(#SVGID_00000061467207030548041620000010835185090931039416_);}
	.st14{opacity:0.1875;fill:url(#SVGID_00000167392470838433379310000011753061938399992463_);}
	.st15{opacity:0.25;fill:url(#SVGID_00000183211058546686698310000015790575057214906511_);}
	.st16{opacity:0.3125;fill:url(#SVGID_00000128474571989763851120000005680069364302650548_);}
	.st17{opacity:0.375;fill:url(#SVGID_00000101093845500080477260000001926385753552154782_);}
	.st18{opacity:0.4375;fill:url(#SVGID_00000157302737379613739430000013510486134478397110_);}
	.st19{opacity:0.5;fill:url(#SVGID_00000129198871527732366010000017848931958161054883_);}
	.st20{opacity:0.5625;fill:url(#SVGID_00000058553027537557966240000001115911714698005634_);}
	.st21{opacity:0.625;fill:url(#SVGID_00000119107856486215123180000013031946477030779279_);}
	.st22{opacity:0.6875;fill:url(#SVGID_00000002382800506795166220000015235781808071280025_);}
	.st23{opacity:0.75;fill:url(#SVGID_00000148622570552922289550000010166192105650083471_);}
	.st24{opacity:0.8125;fill:url(#SVGID_00000146496669552768580830000001173991565796381361_);}
	.st25{opacity:0.875;fill:url(#SVGID_00000173868666767602410510000016418857551217161384_);}
	.st26{opacity:0.9375;fill:url(#SVGID_00000034783559956141016200000010287251963467785354_);}
	.st27{fill:url(#SVGID_00000080924301027648795320000003618390376758110337_);}
	.st28{fill:url(#SVGID_00000064316267804432276770000009351997950495393439_);}
	.st29{filter:url(#Adobe_OpacityMaskFilter);}
	.st30{filter:url(#Adobe_OpacityMaskFilter_00000147207770102476613790000005333412805772672408_);}
	
		.st31{mask:url(#SVGID_00000116938857134949280360000016588874167294020492_);fill:url(#SVGID_00000053526554792607653050000011766867950374078650_);}
	.st32{fill:url(#SVGID_00000007394970899563513820000010046751946588932737_);}
	.st33{fill:#FFFFFF;}
	.st34{fill:#73BE49;}
	.st35{fill:#32A7DE;}
	.st36{fill:#FCCA2D;}
</style>
<g>
	<g>
		<polygon class="st0" points="-0.1,18.4 9,47.8 51.5,72.4 36.5,35.6 		"/>
		<polygon class="st1" points="32,0.3 26,30.5 51.5,72.4 55.9,32.9 		"/>
		<polygon class="st2" points="103.1,18.4 94,47.8 51.5,72.4 66.5,35.6 		"/>
		<polygon class="st3" points="71,0.3 47.1,32.9 51.5,72.4 77,30.5 		"/>
		<polygon class="st3" points="51.4,72.2 36.5,35.6 26.1,30.7 		"/>
		<polygon class="st2" points="51.5,72.3 55.9,32.9 51.5,26.9 47.1,32.9 51.5,72.3 51.5,72.4 		"/>
		<polygon class="st1" points="51.6,72.2 76.9,30.7 66.5,35.6 		"/>
		<polygon class="st4" points="44.7,63.5 44.7,63.6 44.7,63.5 51.4,74.6 51.5,74.7 51.5,74.7 51.5,74.7 51.5,62.5 46.3,55.4 		"/>
		<polygon class="st5" points="44.7,63.5 37.7,60.3 40.2,68.1 51.4,74.6 		"/>
		<polygon class="st6" points="58.3,63.5 58.3,63.6 58.3,63.5 51.6,74.6 51.5,74.7 51.5,74.7 51.5,74.7 51.5,62.5 56.7,55.4 		"/>
		<polygon class="st5" points="58.3,63.5 65.3,60.3 62.8,68.1 51.6,74.6 		"/>
	</g>
</g>
</svg>
