<svg width="14" height="14" viewBox="0 0 14 14" fill="none" xmlns="http://www.w3.org/2000/svg">
<g clip-path="url(#clip0_1076_639)">
<path d="M0 7.41129L0 6.58957C0.00856039 6.54129 0.0181474 6.49302 0.0249957 6.4444C0.0688248 6.1431 0.0934796 5.8377 0.158539 5.54085C0.524238 3.86044 1.38747 2.4827 2.75679 1.44562C4.4603 0.155186 6.37886 -0.272449 8.47067 0.163746C10.1451 0.512633 11.5062 1.39016 12.5475 2.74325C13.672 4.20454 14.1397 5.86851 13.9637 7.69992C13.8213 9.1838 13.2446 10.4941 12.2561 11.6127C11.1716 12.8384 9.82116 13.6022 8.20667 13.8895C7.94335 13.9364 7.67627 13.9628 7.4109 13.9984L6.5891 13.9984C6.55451 13.9885 6.51927 13.9811 6.48364 13.9761C5.38791 13.8987 4.36408 13.5855 3.42929 13.013C1.61449 11.902 0.499925 10.2993 0.10786 8.2039C0.0599215 7.94335 0.0356112 7.67629 0 7.41129ZM12.9139 7.00796C12.9207 3.75225 10.2773 1.10221 7.00924 1.09092C3.7563 1.07962 1.10326 3.72315 1.08546 6.9905C1.0697 10.2452 3.7313 12.9137 6.99692 12.9137C10.2625 12.9137 12.907 10.2715 12.9139 7.00796Z" fill="#F45197"/>
<path d="M6.98496 7.82357C7.04454 7.76673 7.08084 7.73318 7.11576 7.69826C7.83461 6.98039 8.55311 6.26208 9.27127 5.5433C9.43289 5.38136 9.62224 5.31596 9.84413 5.38786C10.0537 5.45634 10.177 5.60527 10.2139 5.82097C10.2293 5.90219 10.2242 5.98597 10.199 6.06471C10.1739 6.14344 10.1294 6.21466 10.0698 6.27189C9.17539 7.16893 8.27963 8.06472 7.3825 8.95925C7.14589 9.19378 6.83053 9.17632 6.58057 8.92809C6.05964 8.40995 5.54054 7.89079 5.02326 7.3706C4.65277 7.00014 4.27748 6.63413 3.91349 6.25717C3.60943 5.94252 3.74228 5.45668 4.15695 5.34917C4.23422 5.32761 4.31551 5.32474 4.39411 5.34082C4.4727 5.35689 4.54634 5.39144 4.60894 5.44162C4.65862 5.48115 4.70564 5.52392 4.74967 5.56967C5.4603 6.27726 6.17024 6.98485 6.87949 7.69243C6.91476 7.72907 6.94284 7.77118 6.98496 7.82357Z" fill="#F45197"/>
</g>
<defs>
<clipPath id="clip0_1076_639">
<rect width="14" height="14" fill="white"/>
</clipPath>
</defs>
</svg>
