<?xml version="1.0" encoding="utf-8"?>
<!-- Generator: Adobe Illustrator 25.4.1, SVG Export Plug-In . SVG Version: 6.00 Build 0)  -->
<svg version="1.1" id="Capa_1" xmlns="http://www.w3.org/2000/svg" xmlns:xlink="http://www.w3.org/1999/xlink" x="0px" y="0px"
	 viewBox="0 0 91 63" style="enable-background:new 0 0 91 63;" xml:space="preserve">
<style type="text/css">
	.st0{fill:#F45197;}
	.st1{fill:#F32735;}
	.st2{fill:#D50057;}
	.st3{fill:#FF6B00;}
	.st4{fill:#B8BE14;}
	.st5{fill:#789C4A;}
	.st6{fill:#5F6638;}
	.st7{fill:#D41C59;}
	.st8{fill:none;stroke:#D41C59;stroke-width:3;stroke-miterlimit:10;}
	.st9{fill:none;stroke:#D41C59;stroke-width:2;stroke-miterlimit:10;}
	.st10{fill:url(#SVGID_1_);}
	.st11{opacity:0;fill:#CBCBCC;}
	.st12{opacity:6.250000e-02;fill:url(#SVGID_00000173128053269098273760000003553316072132339589_);}
	.st13{opacity:0.125;fill:url(#SVGID_00000164504426897283540600000005145195428419515055_);}
	.st14{opacity:0.1875;fill:url(#SVGID_00000018225111201330101940000010256562776998305694_);}
	.st15{opacity:0.25;fill:url(#SVGID_00000170258271713248691210000005059113846205429889_);}
	.st16{opacity:0.3125;fill:url(#SVGID_00000127024545379285655720000004467014079028202368_);}
	.st17{opacity:0.375;fill:url(#SVGID_00000023264460556478171220000015483212832415770770_);}
	.st18{opacity:0.4375;fill:url(#SVGID_00000059999543555911794610000007435405137394373034_);}
	.st19{opacity:0.5;fill:url(#SVGID_00000079479195849953474170000013415136015769741441_);}
	.st20{opacity:0.5625;fill:url(#SVGID_00000024698282575597500610000001063242412243558047_);}
	.st21{opacity:0.625;fill:url(#SVGID_00000093868127476258035530000016486644479695495087_);}
	.st22{opacity:0.6875;fill:url(#SVGID_00000129169099029271815670000009017313113554615185_);}
	.st23{opacity:0.75;fill:url(#SVGID_00000164503647328093469530000000090068379381837241_);}
	.st24{opacity:0.8125;fill:url(#SVGID_00000072987044413215882210000018010082131417798030_);}
	.st25{opacity:0.875;fill:url(#SVGID_00000051364669022532555520000016384956969737386685_);}
	.st26{opacity:0.9375;fill:url(#SVGID_00000023247235703912496880000006121624646707679656_);}
	.st27{fill:url(#SVGID_00000042710256607500956810000016006147928549662112_);}
	.st28{fill:url(#SVGID_00000062177567733327444610000012541735612528517805_);}
	.st29{filter:url(#Adobe_OpacityMaskFilter);}
	.st30{filter:url(#Adobe_OpacityMaskFilter_00000088828080313513342070000010374321312501738651_);}
	
		.st31{mask:url(#SVGID_00000164498645046578530810000017398356032331112327_);fill:url(#SVGID_00000129884336186286080540000000634709785154276279_);}
	.st32{fill:url(#SVGID_00000099649772369043405280000016677888823118480791_);}
	.st33{fill:#FFFFFF;}
	.st34{fill:#73BE49;}
	.st35{fill:#32A7DE;}
	.st36{fill:#FCCA2D;}
</style>
<g>
	<g>
		<polygon class="st2" points="39.1,53.2 22.9,26.7 22.9,26.7 22.9,26.7 0,15.8 8,41.6 33.8,56.6 32.3,51.5 37.8,54.2 37.8,54.1 
			38.8,54.6 		"/>
	</g>
	<polygon class="st2" points="62.3,0 45.2,23.4 45.2,23.4 45.2,23.3 49,28.6 46.5,51.9 50,47 50.6,49.9 58.3,31 67.5,26.7 
		67.5,26.7 67.6,26.5 	"/>
	<g>
		<polygon class="st2" points="45.2,23.3 45.2,23.4 45.2,23.4 28.1,0 22.8,26.5 22.9,26.7 32.1,31 39.8,49.9 40.3,47 43.9,51.9 
			41.3,28.6 		"/>
	</g>
	<g>
		<polygon class="st2" points="67.5,26.7 51.3,53.2 51.6,54.6 52.5,54.1 52.5,54.2 58.1,51.5 56.6,56.6 82.4,41.6 90.4,15.8 		"/>
	</g>
	<g>
		<polygon class="st2" points="40.9,56.6 41.2,57.2 41.2,57.2 44.4,62.6 44.4,54.8 41,50.2 40,55.2 		"/>
		<polygon class="st2" points="34.4,54 35.9,58.9 42.9,63 38.7,56 		"/>
		<polygon class="st2" points="49.3,50.2 45.9,54.8 45.9,62.6 49.2,57.2 49.5,56.6 50.4,55.2 		"/>
		<polygon class="st2" points="51.7,56 47.5,63 54.5,58.9 56,54 		"/>
	</g>
</g>
</svg>
