<?xml version="1.0" encoding="utf-8"?>
<!-- Generator: Adobe Illustrator 25.4.1, SVG Export Plug-In . SVG Version: 6.00 Build 0)  -->
<svg version="1.1" id="Capa_1" xmlns="http://www.w3.org/2000/svg" xmlns:xlink="http://www.w3.org/1999/xlink" x="0px" y="0px"
	 viewBox="0 0 18 23.3" style="enable-background:new 0 0 18 23.3;" xml:space="preserve">
<style type="text/css">
	.st0{fill:#F45197;}
	.st1{fill:#F32735;}
	.st2{fill:#D50057;}
	.st3{fill:#FF6B00;}
	.st4{fill:#B8BE14;}
	.st5{fill:#789C4A;}
	.st6{fill:#5F6638;}
	.st7{fill:#D41C59;}
	.st8{fill:none;stroke:#D41C59;stroke-width:3;stroke-miterlimit:10;}
	.st9{fill:none;stroke:#D41C59;stroke-width:2;stroke-miterlimit:10;}
	.st10{fill:url(#SVGID_1_);}
	.st11{opacity:0;fill:#CBCBCC;}
	.st12{opacity:6.250000e-02;fill:url(#SVGID_00000158723885130031289050000012539474284686065855_);}
	.st13{opacity:0.125;fill:url(#SVGID_00000115480484932529377970000008409661307751364747_);}
	.st14{opacity:0.1875;fill:url(#SVGID_00000045582301182074182610000010214770779800309935_);}
	.st15{opacity:0.25;fill:url(#SVGID_00000065051218091073376800000008960221982369599900_);}
	.st16{opacity:0.3125;fill:url(#SVGID_00000083072644192854148080000009822530008742660267_);}
	.st17{opacity:0.375;fill:url(#SVGID_00000032619398761951169460000016794395594622041226_);}
	.st18{opacity:0.4375;fill:url(#SVGID_00000132773355165555641790000010082101536873084044_);}
	.st19{opacity:0.5;fill:url(#SVGID_00000132056940389834086290000005687724512754462627_);}
	.st20{opacity:0.5625;fill:url(#SVGID_00000044160049362903245000000002381344894552860545_);}
	.st21{opacity:0.625;fill:url(#SVGID_00000121246020119870176650000014681446064668081568_);}
	.st22{opacity:0.6875;fill:url(#SVGID_00000012431902519410688340000015728893365111365292_);}
	.st23{opacity:0.75;fill:url(#SVGID_00000031181905728061720880000016400169899756797362_);}
	.st24{opacity:0.8125;fill:url(#SVGID_00000149363348113894177210000017736192230441645238_);}
	.st25{opacity:0.875;fill:url(#SVGID_00000016794605118137317500000000844284269986642362_);}
	.st26{opacity:0.9375;fill:url(#SVGID_00000036961847313287234320000005070530364919326353_);}
	.st27{fill:url(#SVGID_00000086689959150902860750000005357347931374781080_);}
	.st28{fill:url(#SVGID_00000119797606514059045030000002702247095143466416_);}
	.st29{filter:url(#Adobe_OpacityMaskFilter);}
	.st30{filter:url(#Adobe_OpacityMaskFilter_00000175316262789718126710000018363102584610164616_);}
	
		.st31{mask:url(#SVGID_00000146459337570265815440000005202770383597442709_);fill:url(#SVGID_00000129191170025964492560000009669133054015302314_);}
	.st32{fill:url(#SVGID_00000034788793055739162060000007409066694433253024_);}
	.st33{fill:#FFFFFF;}
	.st34{fill:#73BE49;}
	.st35{fill:#32A7DE;}
	.st36{fill:#FCCA2D;}
</style>
<g>
	<path class="st4" d="M17.8,7.5C17,2.6,12.3-0.8,7.4,0.2C1.1,1.3-2,8.7,1.7,14c2.1,2.9,4.2,5.8,6.3,8.7c0.6,0.8,1.5,0.8,2.1,0
		c2.1-2.9,4.1-5.7,6.2-8.6c1.1-1.6,1.7-3.3,1.7-5.3C17.8,8.3,17.8,7.8,17.8,7.5z M9,14.9c-3.3,0-6.1-2.7-6.1-6.1
		c0-3.4,2.7-6.2,6.2-6.1C12.4,2.9,15,5.6,15,9C15,12.3,12.3,14.9,9,14.9z"/>
	<path class="st4" d="M13.3,7.8c0.1,0,0.2,0,0.3-0.1C13.6,7.6,13.6,7.6,13.3,7.8z"/>
	<path class="st4" d="M8.6,5.9C7.2,6.4,5.8,7.1,4.3,7.8c-0.1,0-0.1,0-0.2,0.1C4.3,8,4.4,8,4.6,8.2C5,8.3,5,8.4,5,8.6
		c0,0.6,0,1.3,0,1.8c0,0.1,0,0.2-0.1,0.3c-0.2,0.1-0.2,0.5,0,0.7c0.1,0.1,0.5,0.2,0.7,0c0.2-0.2,0.3-0.6,0.1-0.7
		c-0.2-0.2-0.2-0.5-0.2-0.7c0-0.6,0-1,0-1.6c0-0.1,0-0.1,0-0.2c0.1,0,0.1,0.1,0.2,0.1c0.9,0.5,1.9,0.9,3,1.4c0.2,0.1,0.3,0.1,0.5,0
		c1.4-0.7,2.9-1.3,4.2-1.9C11.8,7.1,10.5,6.6,9,5.9C8.9,5.9,8.8,5.9,8.6,5.9z"/>
	<path class="st4" d="M9.2,10.2c-0.2,0.1-0.5,0.1-0.7,0C7.7,9.8,6.9,9.4,6.1,9.1C6.1,9.1,6,9,5.9,9c0,0.3,0,0.7-0.1,1
		c0,0.1,0.1,0.2,0.2,0.2c0.9,0.5,1.8,0.8,2.7,1.3c0,0,0.1,0,0.2,0c0.9-0.5,1.8-0.8,2.7-1.3c0,0,0.1,0,0.1-0.1c0-0.3,0-0.8,0-1.1
		c-0.1,0.1-0.1,0.1-0.2,0.1C10.8,9.4,10,9.9,9.2,10.2z"/>
</g>
</svg>
