<?xml version="1.0" encoding="utf-8"?>
<!-- Generator: Adobe Illustrator 25.4.1, SVG Export Plug-In . SVG Version: 6.00 Build 0)  -->
<svg version="1.1" id="Capa_1" xmlns="http://www.w3.org/2000/svg" xmlns:xlink="http://www.w3.org/1999/xlink" x="0px" y="0px"
	 viewBox="0 0 18 23.3" style="enable-background:new 0 0 18 23.3;" xml:space="preserve">
<style type="text/css">
	.st0{fill:#F45197;}
	.st1{fill:#F32735;}
	.st2{fill:#D50057;}
	.st3{fill:#FF6B00;}
	.st4{fill:#B8BE14;}
	.st5{fill:#789C4A;}
	.st6{fill:#5F6638;}
	.st7{fill:#D41C59;}
	.st8{fill:none;stroke:#D41C59;stroke-width:3;stroke-miterlimit:10;}
	.st9{fill:none;stroke:#D41C59;stroke-width:2;stroke-miterlimit:10;}
	.st10{fill:url(#SVGID_1_);}
	.st11{opacity:0;fill:#CBCBCC;}
	.st12{opacity:6.250000e-02;fill:url(#SVGID_00000043441840680504259150000001279953212998077314_);}
	.st13{opacity:0.125;fill:url(#SVGID_00000018204603301471593090000012870724662725795753_);}
	.st14{opacity:0.1875;fill:url(#SVGID_00000170971998818940565400000011605675760981532550_);}
	.st15{opacity:0.25;fill:url(#SVGID_00000008862360934875324510000003129598964319235256_);}
	.st16{opacity:0.3125;fill:url(#SVGID_00000041996840064562253850000000498048383578010046_);}
	.st17{opacity:0.375;fill:url(#SVGID_00000085249726525607985630000003403409182911865272_);}
	.st18{opacity:0.4375;fill:url(#SVGID_00000093874614516801236430000002593083501185786013_);}
	.st19{opacity:0.5;fill:url(#SVGID_00000004515734748467525310000013509876841509683349_);}
	.st20{opacity:0.5625;fill:url(#SVGID_00000002373074650009304920000007257495509939904393_);}
	.st21{opacity:0.625;fill:url(#SVGID_00000089558220063021445570000007122518387535796639_);}
	.st22{opacity:0.6875;fill:url(#SVGID_00000005982128488687770430000005016634550249037448_);}
	.st23{opacity:0.75;fill:url(#SVGID_00000136405777861440937970000003280101903365054903_);}
	.st24{opacity:0.8125;fill:url(#SVGID_00000114796125814992351880000008574321804529635769_);}
	.st25{opacity:0.875;fill:url(#SVGID_00000180337120104519125140000008288280236398413973_);}
	.st26{opacity:0.9375;fill:url(#SVGID_00000161611577034700071270000004154971095876124562_);}
	.st27{fill:url(#SVGID_00000027578017847390670790000010431994866604183690_);}
	.st28{fill:url(#SVGID_00000060734535234727168440000010525618040422273690_);}
	.st29{filter:url(#Adobe_OpacityMaskFilter);}
	.st30{filter:url(#Adobe_OpacityMaskFilter_00000181086776205872782740000012659755792082811782_);}
	
		.st31{mask:url(#SVGID_00000111902915567528484160000009928697692510661021_);fill:url(#SVGID_00000043452353484402360380000013108395843441307014_);}
	.st32{fill:url(#SVGID_00000081630660088377645620000007710032459585129886_);}
	.st33{fill:#FFFFFF;}
	.st34{fill:#73BE49;}
	.st35{fill:#32A7DE;}
	.st36{fill:#FCCA2D;}
</style>
<g>
	<path class="st4" d="M17.8,7.5C17,2.6,12.3-0.8,7.4,0.2C1.1,1.3-2,8.7,1.7,14c2.1,2.9,4.2,5.8,6.3,8.7c0.6,0.8,1.5,0.8,2.1,0
		c2.1-2.9,4.1-5.7,6.2-8.6c1.1-1.6,1.7-3.3,1.7-5.3C17.8,8.3,17.8,7.8,17.8,7.5z M9,14.8c-3.3,0-6.1-2.7-6.1-6.1
		c0-3.4,2.7-6.1,6.2-6.1C12.4,2.8,15,5.5,15,8.8C15,12.2,12.3,14.8,9,14.8z"/>
	<path class="st4" d="M8.2,5.4C7,5.5,6,5.9,5,6.4c-0.1,0-0.2,0.2-0.1,0.3c0.7,1,3.3,5.5,3.9,6.6c0.1,0.2,0.3,0.2,0.5,0
		c0.7-1.1,2.6-4.6,3.8-6.5c0-0.1,0-0.2-0.1-0.3C12.3,6.1,10.5,5.2,8.2,5.4z M7.2,9.5c0.2-0.1,0.7,0,1,0.3c0.2,0.3,0.2,0.9-0.1,1.1
		C7.7,10.6,7.5,10,7.2,9.5z M10.4,10.4C10.1,10.3,10,10.2,10,10c-0.1-0.2,0-0.3,0.2-0.5c0.2-0.1,0.5,0,0.6,0.1
		C10.7,9.9,10.5,10.1,10.4,10.4z M11,9.3c-0.2-0.2-0.6-0.2-0.9-0.1C9.9,9.3,9.7,9.4,9.6,9.6c-0.2,0.5-0.1,1,0.5,1.4
		c-0.5,0.6-0.8,1.1-1.1,1.8c0-0.1,0-0.1,0-0.1c-0.2-0.5-0.5-0.8-0.7-1.1v-0.1c0.7-0.8,0.5-2.1-0.6-2.4C7.3,9,7,9,6.7,9.1
		C6.5,8.6,6.1,8.2,5.9,7.7c0.5-0.2,1-0.5,1.6-0.6c0,0.5,0.2,0.8,0.6,1.1C8.3,8.4,8.6,8.5,9,8.5c0.7,0,1.3-0.6,1.3-1.4
		c0.1,0,0.2,0,0.3,0.2c0.1,0,0.2,0.1,0.3,0.1c-0.1,0.5,0,1,0.5,1.4C11.3,9,11.2,9.1,11,9.3z M8.1,7.4c0-0.1,0-0.2,0-0.3
		c0-0.1,0.1-0.1,0.1-0.1c0.5,0,0.9,0,1.4,0c0.2,0,0.2,0,0.2,0.2c0,0.5-0.3,0.8-0.8,0.8C8.5,7.9,8.2,7.7,8.1,7.4z M11.6,8.3
		c-0.2-0.2-0.2-0.5-0.2-0.8c0.2,0,0.3,0.1,0.6,0.2C11.8,7.8,11.7,8,11.6,8.3z M12.2,7.2c-2.2-1-4.2-1-6.4,0C5.7,7,5.6,6.9,5.4,6.7
		c2.1-1.1,4.8-1.3,7.1,0C12.4,6.9,12.3,7,12.2,7.2z"/>
</g>
</svg>
