<?xml version="1.0" encoding="utf-8"?>
<!-- Generator: Adobe Illustrator 25.4.1, SVG Export Plug-In . SVG Version: 6.00 Build 0)  -->
<svg version="1.1" id="Capa_1" xmlns="http://www.w3.org/2000/svg" xmlns:xlink="http://www.w3.org/1999/xlink" x="0px" y="0px"
	 viewBox="0 0 18 23.3" style="enable-background:new 0 0 18 23.3;" xml:space="preserve">
<style type="text/css">
	.st0{fill:#F45197;}
	.st1{fill:#F32735;}
	.st2{fill:#D50057;}
	.st3{fill:#FF6B00;}
	.st4{fill:#B8BE14;}
	.st5{fill:#789C4A;}
	.st6{fill:#5F6638;}
	.st7{fill:#D41C59;}
	.st8{fill:none;stroke:#D41C59;stroke-width:3;stroke-miterlimit:10;}
	.st9{fill:none;stroke:#D41C59;stroke-width:2;stroke-miterlimit:10;}
	.st10{fill:url(#SVGID_1_);}
	.st11{opacity:0;fill:#CBCBCC;}
	.st12{opacity:6.250000e-02;fill:url(#SVGID_00000150060975261112618790000014463684625178704313_);}
	.st13{opacity:0.125;fill:url(#SVGID_00000106859663534538416430000008447108981480747439_);}
	.st14{opacity:0.1875;fill:url(#SVGID_00000081614239134806010300000009389338140548798596_);}
	.st15{opacity:0.25;fill:url(#SVGID_00000013915148505816975720000005322641654669487493_);}
	.st16{opacity:0.3125;fill:url(#SVGID_00000137842013549832664430000014882701724669453740_);}
	.st17{opacity:0.375;fill:url(#SVGID_00000162349893772837981130000017358794786419709866_);}
	.st18{opacity:0.4375;fill:url(#SVGID_00000052788031460071134350000011595848428064746174_);}
	.st19{opacity:0.5;fill:url(#SVGID_00000065792586592541759620000007323320043920160643_);}
	.st20{opacity:0.5625;fill:url(#SVGID_00000137112019824583335060000000224815897759487671_);}
	.st21{opacity:0.625;fill:url(#SVGID_00000038415033199034289630000013372078201739181475_);}
	.st22{opacity:0.6875;fill:url(#SVGID_00000115502474348931546160000014957523372976350626_);}
	.st23{opacity:0.75;fill:url(#SVGID_00000118372277042237317270000014637841552766987147_);}
	.st24{opacity:0.8125;fill:url(#SVGID_00000135686917038527470170000014526108170028831651_);}
	.st25{opacity:0.875;fill:url(#SVGID_00000086666020014680090230000007186549801872207785_);}
	.st26{opacity:0.9375;fill:url(#SVGID_00000012465110832603164800000000132418324163468705_);}
	.st27{fill:url(#SVGID_00000004547025925148626110000011641518864507285919_);}
	.st28{fill:url(#SVGID_00000097468873519495832990000017375995351842287543_);}
	.st29{filter:url(#Adobe_OpacityMaskFilter);}
	.st30{filter:url(#Adobe_OpacityMaskFilter_00000015346875288880734480000011904336068192202167_);}
	
		.st31{mask:url(#SVGID_00000006697959308979424320000010241272266122637759_);fill:url(#SVGID_00000029011921379819561620000010532162364744042112_);}
	.st32{fill:url(#SVGID_00000070839770555859712440000012597303665138793136_);}
	.st33{fill:#FFFFFF;}
	.st34{fill:#73BE49;}
	.st35{fill:#32A7DE;}
	.st36{fill:#FCCA2D;}
</style>
<g>
	<g>
		<path class="st4" d="M17.9,8.8c0,1.9-0.6,3.7-1.7,5.3c-2.1,2.9-4.1,5.7-6.2,8.6c-0.6,0.8-1.5,0.8-2.1,0c-2.1-2.9-4.2-5.8-6.3-8.7
			C-2,8.7,1.1,1.3,7.4,0.2c4.9-0.9,9.6,2.4,10.4,7.3C17.8,7.8,17.9,8.4,17.9,8.8z M2.9,8.8c0,3.3,2.7,6.1,6.1,6.1
			c3.3,0,6.1-2.6,6.1-5.9s-2.6-6.1-5.9-6.2C5.7,2.8,2.9,5.4,2.9,8.8z"/>
	</g>
	<g>
		<path class="st4" d="M7.6,7.5c0-0.7,0-1.4,0-1.9C7.6,5.1,7.7,5,8.2,5c0.6,0,1.1,0,1.7,0c0.3,0,0.5,0.1,0.5,0.5c0,0.7,0,1.3,0,1.9
			c0,0,0,0,0,0.1c0.1,0,0.2,0,0.2,0c0.6,0,1.1,0,1.7,0c0.3,0,0.6,0.1,0.6,0.6c0,0.6,0,1.1,0,1.7c0,0.3-0.1,0.6-0.6,0.6
			c-0.6,0-1.1,0-1.7,0c-0.1,0-0.2,0-0.3,0c0,0.2,0,0.6,0,0.8c0,0.5,0,0.9,0,1.3c0,0.3-0.1,0.5-0.5,0.5c-0.7,0-1.3,0-1.9,0
			c-0.3,0-0.5-0.2-0.5-0.5c0-0.7,0-1.4,0-2.1c-0.2,0-0.3,0-0.6,0c-0.5,0-1,0-1.5,0c-0.3,0-0.5-0.1-0.5-0.5c0-0.6,0-1.3,0-1.8
			c0-0.3,0.2-0.5,0.5-0.5C6.1,7.5,6.8,7.5,7.6,7.5z"/>
	</g>
</g>
</svg>
