<?xml version="1.0" encoding="utf-8"?>
<!-- Generator: Adobe Illustrator 25.4.1, SVG Export Plug-In . SVG Version: 6.00 Build 0)  -->
<svg version="1.1" id="Capa_1" xmlns="http://www.w3.org/2000/svg" xmlns:xlink="http://www.w3.org/1999/xlink" x="0px" y="0px"
	 viewBox="0 0 14.1 24" style="enable-background:new 0 0 14.1 24;" xml:space="preserve">
<style type="text/css">
	.st0{fill:#F45197;}
	.st1{fill:#F32735;}
	.4{fill:#D50057;}
	.st3{fill:#FF6B00;}
	.st4{fill:#B8BE14;}
	.st5{fill:#789C4A;}
	.st6{fill:#5F6638;}
	.st7{fill:#D41C59;}
	.st8{fill:none;stroke:#D41C59;stroke-width:3;stroke-miterlimit:10;}
	.st9{fill:none;stroke:#D41C59;stroke-width:2;stroke-miterlimit:10;}
	.st10{fill:url(#SVGID_1_);}
	.st11{opacity:0;fill:#CBCBCC;}
	.st12{opacity:6.250000e-02;fill:url(#SVGID_00000066495024913453602850000016673394155534112946_);}
	.st13{opacity:0.125;fill:url(#SVGID_00000000205364932302727460000005361960337185606030_);}
	.st14{opacity:0.1875;fill:url(#SVGID_00000032637881656434762620000004709627542690923661_);}
	.st15{opacity:0.25;fill:url(#SVGID_00000089538739499132992240000003462090364089027205_);}
	.st16{opacity:0.3125;fill:url(#SVGID_00000074404544465536574920000017500120442681570716_);}
	.st17{opacity:0.375;fill:url(#SVGID_00000070810439789968969270000017184543392902264461_);}
	.st18{opacity:0.4375;fill:url(#SVGID_00000183212268090190884990000008971020102534228920_);}
	.st19{opacity:0.5;fill:url(#SVGID_00000174602401712298790150000010639111536159272110_);}
	.st20{opacity:0.5625;fill:url(#SVGID_00000034062904609189394850000001095710036927116213_);}
	.st21{opacity:0.625;fill:url(#SVGID_00000087413837041022722440000006084733448081624480_);}
	.st22{opacity:0.6875;fill:url(#SVGID_00000177458941656468103720000014994437015711120802_);}
	.st23{opacity:0.75;fill:url(#SVGID_00000062882978321238859330000007804379669258935950_);}
	.st24{opacity:0.8125;fill:url(#SVGID_00000026134721102400608200000007139493979334426030_);}
	.st25{opacity:0.875;fill:url(#SVGID_00000165194803760612931980000005222736968351981441_);}
	.st26{opacity:0.9375;fill:url(#SVGID_00000059991106921844846610000018032195353774822052_);}
	.st27{fill:url(#SVGID_00000012460110140213637000000017013128143961633930_);}
	.st28{fill:url(#SVGID_00000047032361882602482440000006806996127618955904_);}
	.st29{filter:url(#Adobe_OpacityMaskFilter);}
	.st30{filter:url(#Adobe_OpacityMaskFilter_00000033366347260640470240000007716332085710435462_);}
	
		.st31{mask:url(#SVGID_00000169528885849100746020000000825307543021604504_);fill:url(#SVGID_00000030456322948649502700000010599016825879238029_);}
	.st32{fill:url(#SVGID_00000110458262578702842430000000754347825540426401_);}
	.st33{fill:#FFFFFF;}
	.st34{fill:#73BE49;}
	.st35{fill:#32A7DE;}
	.st36{fill:#FCCA2D;}
</style>
<path class="st4" d="M13.5,10.2C13,8.5,12.3,7.3,11.6,6C11,4.8,10.4,3.5,9.8,1.7L9.2,0l-1,1.4C7.1,3.1,6,4,5,5
	C3.6,6.3,2.4,7.5,1.4,9.3c-0.7,1.2-1.1,2.6-1.3,3.9c-0.3,2.3,0.6,4.7,2.5,6.3c0.8,0.8,1.9,1.3,3,1.5c0.2,1.6,0.3,2.4,0.3,2.5L6,24
	l1.8-0.4l-0.1-0.3c0,0-0.1-0.6-0.3-1.9c0.5-0.1,1.1-0.1,1.5-0.2c1.8-0.6,3.5-2.1,4.4-3.9c0.2-0.3,0.3-0.7,0.5-1
	C14.3,14.5,14.2,12.5,13.5,10.2z M7.5,4.7C7.8,4.4,8.1,4,8.4,3.7c0.2,0.6,0.5,1.1,0.7,1.6L7.5,4.7z M1.8,13.5c0.1-1,0.5-2.2,1.1-3.3
	c0.9-1.6,2-2.7,3.3-3.9C6.5,6,7,5.5,7.3,5.2C7.1,5.9,6.9,6.8,6.7,8C6.3,7.7,5.9,7.4,5.9,7.4L5.5,7.3L4.7,8.9l0.4,0.1
	c0.3,0.2,1,0.6,1.2,1.2c-0.1,0.4-0.2,0.8-0.3,1.2C5.3,11.2,4.6,11,4.6,11l-0.5-0.1l-0.4,1.8l0.5,0.1c0.4,0.1,1.2,0.3,1.5,0.7
	c-0.1,0.6-0.1,1.2-0.2,1.7c-0.1,1.4-0.1,2.7-0.1,4.1c-0.6-0.3-1.3-0.6-1.8-1.1C2.3,17,1.5,15.2,1.8,13.5z M7.2,19.5
	c0-1.2,0-2.5-0.1-4c0.1-0.1,0.2-0.3,0.4-0.4c0.7-0.8,1.8-1.9,3.1-2l0.4,0L11,11.2l-0.4,0c-1.2,0-2.3,0.7-3,1.4c0.3-2,0.8-5,1.4-7
	l0.1-0.4c0.3,0.5,0.6,1,0.8,1.5l0.4-0.2L10,6.8c0.6,1.2,1.2,2.3,1.6,3.8c0.6,1.9,0.6,3.6,0.3,4.9c-0.1,0.2-0.2,0.5-0.3,0.8
	c-0.6,1.4-1.9,2.5-3.3,2.9C8,19.3,7.6,19.5,7.2,19.5z M12.3,15.8C12.3,15.8,12.3,15.8,12.3,15.8C12.3,15.8,12.3,15.8,12.3,15.8
	C12.3,15.8,12.3,15.8,12.3,15.8C12.3,15.8,12.3,15.8,12.3,15.8z M12.2,16.1c0,0.1,0,0.1-0.1,0.2C12.2,16.2,12.2,16.1,12.2,16.1z
	 M6.1,20.7c0,0.1,0,0.1,0,0.1C6.1,20.8,6.1,20.8,6.1,20.7C6,20.7,6.1,20.7,6.1,20.7z"/>
</svg>
